<?xml version="1.0" encoding="UTF-8"?>
<!DOCTYPE svg PUBLIC "-//W3C//DTD SVG 1.1//EN" "http://www.w3.org/Graphics/SVG/1.1/DTD/svg11.dtd">
<!-- Creator: CorelDRAW 2017 -->
<svg xmlns="http://www.w3.org/2000/svg" xml:space="preserve" width="250mm" height="105mm" version="1.1" style="shape-rendering:geometricPrecision; text-rendering:geometricPrecision; image-rendering:optimizeQuality; fill-rule:evenodd; clip-rule:evenodd"
viewBox="0 0 25000 10500"
 xmlns:xlink="http://www.w3.org/1999/xlink">
 <defs>
  <style type="text/css">
   <![CDATA[
    .str0 {stroke:#D7263D;stroke-width:62.38;stroke-miterlimit:22.9256}
    .fil5 {fill:none;fill-rule:nonzero}
    .fil2 {fill:#D36135}
    .fil1 {fill:#FCC351}
    .fil3 {fill:#D7263D;fill-rule:nonzero}
    .fil4 {fill:#FCC351;fill-rule:nonzero}
    .fil0 {fill:url(#id0)}
   ]]>
  </style>
  <linearGradient id="id0" gradientUnits="userSpaceOnUse" x1="2337.95" y1="3627.94" x2="10118.37" y2="3627.94">
   <stop offset="0" style="stop-opacity:1; stop-color:#D7263D"/>
   <stop offset="1" style="stop-opacity:1; stop-color:#D36135"/>
  </linearGradient>
 </defs>
 <g id="Camada_x0020_1">
  <metadata id="CorelCorpID_0Corel-Layer"/>
  <g id="_2333845572912">
   <path class="fil0" d="M7629.59 7110.39l921.09 -961.79c64.49,-74.8 117.09,-135.06 180.25,-206.95 513.27,-584.37 1175.88,-1591.63 1428.55,-2408.85 282.8,-914.75 91.18,-1791.97 -413.1,-2374.75 -526.49,-608.69 -1226.36,-971.04 -2089.04,-975.54 -1044.52,-5.81 -1980.94,570.1 -2415.72,1432.25l-1463.44 0c-256.9,0 -467.29,210.12 -467.29,467.29l0 0c0,257.17 210.38,467.29 467.29,467.29l1210.77 0 67.66 0c257.17,0 467.55,210.38 467.55,467.29l0 0c0,240.51 -183.95,439.8 -417.86,464.64l0.79 2.91 -2290.7 0c-256.9,0 -467.29,210.12 -467.29,467.29l0 0c0,256.9 210.38,467.29 467.29,467.29l2683.72 0 220.69 0 320.07 0c256.9,0 467.29,210.38 467.29,467.29l0 0c0,241.57 -185.54,441.65 -421.3,465.17l1.85 2.11 -1917.77 0c-257.17,0 -467.55,210.38 -467.55,467.29l0 0c0,257.17 210.38,467.55 467.55,467.55l2670.5 0c12.42,14.54 24.58,29.34 36.74,44.4l751.41 777.84 0 -0.02z"/>
   <circle class="fil1" cx="7637.52" cy="2731.17" r="1226.89"/>
   <path class="fil2" d="M7086.98 3095.91l12.95 -82.99c10.04,-5.81 12.95,3.17 24.84,-0.26 1.85,-73.48 -8.99,-70.3 -12.95,-100.96 -8.99,-66.6 11.1,34.36 2.11,-89.33 -1.59,-22.2 4.76,-57.88 5.02,-70.04 1.32,-39.38 -24.05,-85.9 -26.17,-118.67 -5.29,-77.97 -17.44,-38.59 -30.39,-115.76 56.56,48.9 148.01,321.92 170.47,354.16l70.83 209.86c17.44,70.3 41.23,146.16 59.47,216.99 19.29,75.85 31.45,144.84 48.63,222.54l5.02 35.15c21.41,43.87 47.31,265.89 58.41,391.17 47.84,5.29 93.83,9.25 148.01,10.57 54.18,1.06 90.13,0 144.31,-6.87 21.67,-132.15 47.05,-292.32 81.93,-386.41l40.97 -163.87c10.04,-11.89 37.27,-112.86 48.63,-142.99 10.57,-28.02 53.39,-124.75 55.24,-148.01 18.24,-27.75 33.83,-72.42 49.69,-108.36 18.24,-41.76 41.76,-78.23 55.24,-116.56 10.84,-14.27 29.87,-50.48 41.76,-71.63 20.35,-35.95 24.84,-52.07 52.6,-71.1 -0.79,3.96 -56.3,151.97 -58.15,201.13 -0.79,18.24 5.55,35.42 5.29,60.26 -0.53,35.15 -13.48,37.53 -7.4,64.75 14.8,66.34 -6.87,43.87 -3.96,82.2 3.96,50.22 -6.34,19.03 17.71,36.74 2.38,-11.89 -13.48,-6.61 9.25,-11.1 3.44,56.56 48.37,196.38 77.7,229.94 129.77,-187.92 15.59,-232.59 89.6,-261.66l-7.93 -97.79 26.43 -8.46c-5.55,-28.54 -14.01,-53.12 -19.82,-79.03 -21.67,-95.41 22.2,45.2 -10.04,-109.69 -2.38,-11.63 -2.64,-4.23 -1.85,-18.5 3.17,-62.9 -8.46,44.14 3.96,-16.12 0.26,-1.59 1.32,-3.96 1.59,-5.29 3.96,-25.11 -8.19,-35.95 -15.86,-62.9 17.97,17.71 49.16,56.3 73.21,70.3 0.79,0.53 3.17,1.32 3.96,1.85 38.06,22.2 66.08,98.58 106.78,152.5l17.44 26.43c71.89,112.06 61.85,183.43 80.08,211.44 68.98,-127.13 47.84,-344.65 -98.32,-461.21 -24.84,-19.82 -94.09,-74.27 -121.05,-84.58 57.88,-6.34 246.06,65.02 302.89,92.24 72.42,34.36 108.89,91.71 139.02,107.57 0.26,-113.65 -97,-195.85 -172.59,-237.61 -103.61,-56.82 -229.15,-71.89 -361.56,-63.17 -0.53,-191.88 31.98,-183.95 -62.38,-341.48 -60.79,-101.76 -163.87,-129.24 -310.55,-126.07l28.02 20.62c155.15,86.69 82.99,63.7 168.36,167.83 13.48,16.39 28.02,34.09 34.89,53.12 10.57,29.87 -10.84,-8.99 12.42,29.07l39.91 80.35c11.63,25.64 12.16,62.38 12.42,91.71 -70.83,-31.45 -130.83,-108.1 -288.88,-150.65 -119.99,-32.51 -219.9,-31.19 -314.78,47.57 -20.09,16.65 -17.97,10.31 -27.49,31.72 185.28,7.4 233.11,-3.17 390.37,61.85 55.5,22.73 -11.1,4.49 94.09,43.61l11.89 5.29c50.48,21.41 45.46,9.25 80.61,34.89 -131.09,1.59 -208.27,-3.7 -318.75,53.39 -65.02,33.57 -171.8,115.5 -178.14,197.17l-12.16 27.49c-1.06,3.17 -6.08,26.17 -6.61,27.49 -2.91,44.14 -7.66,102.55 8.99,141.67l26.43 -47.57c12.69,-31.72 5.81,-31.72 30.13,-48.63l11.89 -11.89c89.6,-99.91 52.6,-7.66 85.63,-81.93 74.27,-21.14 17.71,-18.77 78.23,-56.03 41.23,-25.37 1.85,14.8 85.11,-44.4 56.82,-40.44 112.33,-87.48 201.66,-93.56 -15.59,31.98 -71.63,85.11 -115.24,176.82l-43.87 88.54c-13.48,28.28 -24.58,53.92 -38.32,80.08l-6.08 16.92c-19.82,38.59 -28.28,97 -61.58,126.6 -2.11,35.15 -45.72,136.38 -65.28,167.83 -7.66,39.38 -20.35,58.15 -25.11,83.78 -3.7,6.08 -7.14,11.89 -11.1,17.97 -0.79,1.32 -3.7,7.14 -4.23,5.81 -0.79,-1.59 -3.17,3.7 -4.49,5.55 0.53,29.07 -13.74,56.03 -21.94,85.37 -32.51,44.4 -114.71,353.64 -125.28,377.69l-6.08 12.69c-12.95,-108.1 -59.2,-297.6 -94.62,-390.37 -20.88,-77.18 -47.57,-154.09 -70.83,-230.74l-52.33 -163.34c-4.23,-12.95 -7.93,-26.69 -14.01,-38.85 -7.14,-14.54 -3.44,-8.72 -11.36,-18.24 0.26,-28.54 -23.79,-85.9 -36.74,-109.16l-17.71 -71.36c-1.32,-1.85 -3.17,-4.23 -3.96,-5.29l-16.12 -22.73c-0.79,-3.7 -2.64,-4.23 -4.23,-6.08 -0.79,-45.2 -102.81,-260.87 -137.17,-324.56 -21.67,-40.44 -43.35,-61.05 -60.79,-98.58 76.65,7.66 120.79,44.4 164.92,80.61 91.18,75.06 40.17,40.97 99.64,68.45l116.29 105.46c54.71,29.87 22.99,25.64 57.09,57.35 34.89,31.98 45.2,54.45 56.3,125.81 46.25,-47.57 32.24,-257.17 -93.83,-385.09 -101.49,-102.81 -202.98,-127.39 -388.52,-122.37 22.47,-22.47 87.75,-43.08 122.11,-57.09 21.14,-8.46 43.35,-35.42 115.24,-65.55 96.73,-40.7 209.33,-36.74 322.18,-42.29 -12.42,-34.09 -79.29,-82.46 -122.64,-97.53 -218.58,-74.8 -453.28,162.28 -488.96,178.14 0,-69.25 0.53,-81.4 27.22,-128.98 22.73,-40.7 1.32,2.64 5.55,-26.96 6.08,-41.5 99.11,-182.9 102.28,-190.3 1.06,-2.11 13.22,-59.2 90.39,-110.21 22.99,-14.8 48.37,-24.05 65.81,-41.5 -137.44,-4.23 -242.89,22.2 -303.95,140.08 -85.37,164.13 -70.83,183.95 -60.79,385.62 -145.37,-8.19 -253.99,7.93 -357.6,76.38 -65.55,43.08 -167.57,138.23 -160.43,262.45 28.81,-22.2 49.69,-60.26 75.33,-80.08l105.19 -67.13c31.98,-18.24 205.1,-79.29 245.27,-79.82 -81.67,72.68 -164.13,113.91 -211.44,234.44 -35.95,91.18 -54.45,303.95 4.49,385.09 12.95,-61.32 12.42,-104.4 37.53,-161.22l50.22 -105.72c33.3,-52.07 74.27,-144.84 98.85,-166.25 0.79,-0.79 2.91,-2.11 3.7,-2.64 28.81,-21.67 51.01,-54.97 76.38,-86.96 -3.17,25.11 -5.29,16.92 -10.31,37.8 -15.07,65.28 -2.38,19.82 2.38,40.97 5.81,26.43 -8.19,52.86 -14.27,84.31 -12.95,68.45 20.09,-8.99 1.85,77.97 -6.87,33.04 -13.74,58.41 -19.29,92.24l26.69 8.72 -20.35 103.34c2.91,0.79 5.55,-0.53 5.81,1.06 6.08,20.35 -3.17,-13.22 26.43,7.93 -0.26,84.05 1.85,196.9 59.73,271.97 8.72,11.1 4.23,6.08 13.48,14.01l58.15 -168.36 0.04 0z"/>
   <circle class="fil1" cx="2684.77" cy="5849.4" r="167.04"/>
   <circle class="fil1" cx="1701.03" cy="3910.22" r="424.99"/>
   <circle class="fil1" cx="3223.94" cy="5849.4" r="289.14"/>
   <circle class="fil1" cx="847.87" cy="3910.22" r="289.14"/>
   <circle class="fil1" cx="308.69" cy="3910.22" r="167.04"/>
   <circle class="fil1" cx="2934.8" cy="2034.47" r="167.04"/>
   <path class="fil3" d="M15670.18 10141.66c-37.8,-12.69 -56.82,-35.42 -56.82,-69.25 0,-38.06 10.31,-78.23 31.72,-119.99 29.07,-41.76 69.25,-70.3 119.73,-85.11 50.48,-15.07 98.58,-18.24 145.1,-9.51 147.48,41.76 295.75,75.59 444.82,100.96 149.07,25.11 302.1,46.52 457.51,63.17 -46.52,-109.69 -76.38,-236.81 -91.45,-381.92 -15.07,-145.1 -19.82,-283.07 -15.86,-413.1 3.96,-151.44 16.65,-305.27 38.06,-460.68 33.83,-324.03 95.41,-642.78 186.07,-955.98 90.66,-312.93 190.03,-605.52 299.72,-876.95 109.42,-271.17 217.52,-511.69 324.83,-722.34 107.31,-210.65 194.79,-374.78 261.92,-492.13 -92.24,8.46 -177.61,16.39 -255.58,25.11 -77.97,8.72 -157,19.03 -236.55,31.72 -79.82,12.42 -164.13,28.28 -252.41,47.31 -88.28,18.77 -189.24,40.97 -302.89,66.08 -16.65,3.96 -40.17,6.34 -69.51,6.34 -41.76,-8.72 -82.73,-21.94 -122.9,-40.97 -40.17,-19.03 -76.38,-40.97 -110.48,-66.34 -29.07,-25.11 -38.59,-55.24 -28.28,-90.66 10.04,-35.42 34.62,-60 72.42,-72.42 261.13,-75.06 529.4,-128.71 804.53,-162.55 275.14,-33.04 568.78,-45.72 880.12,-37 227.3,12.42 428.96,35.42 605.78,68.45 75.59,12.69 149.07,30.13 220.69,50.48 71.89,21.41 135.06,45.72 189.5,75.85 54.18,29.07 98.58,63.7 132.42,103.34 33.83,40.17 48.1,85.11 44.14,135.59 -8.72,84.31 -40.17,157 -94.62,217.52 -54.45,60.79 -119.2,112.86 -192.41,154.62 -73.48,41.76 -145.89,75.85 -217.78,100.96 -71.63,25.37 -128.45,41.76 -170.21,50.48 -21.41,8.72 -40.44,7.14 -56.82,-3.17 -16.65,-10.04 -25.37,-25.9 -25.37,-47.31 -8.46,-33.83 -6.34,-65.28 6.34,-94.62 12.69,-29.07 35.42,-44.14 69.51,-44.14 29.07,-3.96 71.63,-12.69 126.07,-25.11 54.45,-12.69 111.27,-31.72 170.47,-56.82 59.2,-25.37 113.65,-57.62 163.87,-97.79 50.48,-40.17 86.16,-91.45 107.31,-154.62 8.72,-25.37 -0.79,-48.1 -28.28,-69.51 -27.75,-21.14 -65.55,-37.8 -113.65,-50.48 -48.1,-12.42 -106.51,-21.94 -173.38,-28.28 -67.13,-6.34 -135.06,-11.89 -201.93,-15.86 -164.13,-8.72 -353.37,-8.72 -567.98,0 -12.42,3.17 -35.42,4.76 -69.25,4.76 -160.17,302.89 -299.72,593.09 -419.71,870.61 -119.73,277.78 -217.52,523.85 -293.37,738.46 -92.24,252.14 -167.83,488.17 -227.04,706.48 -97,412.58 -152.24,745.33 -167.3,1000.12 -15.07,254.79 -8.72,455.13 19.03,602.61 27.49,147.48 66.87,250.03 119.73,309.23 52.86,58.94 100.17,94.62 141.93,107.04 3.96,3.96 7.14,6.34 9.51,6.34 2.38,0 5.55,2.38 9.51,6.34 205.89,0 410.2,-9.51 612.12,-28.28 201.93,-19.03 403.59,-49.69 605.52,-91.45 67.13,-12.69 113.65,10.04 139.02,69.25 12.42,25.37 12.42,48.1 0,69.51 -12.69,21.14 -29.34,35.42 -50.48,44.14 -483.67,122.11 -975.8,190.03 -1476.65,205.1 -500.59,14.8 -990.34,-43.35 -1470.05,-173.65l-0.01 0.02z"/>
   <path id="_1" class="fil3" d="M17607.24 9750.5c-164.13,0 -254.79,-108.1 -271.17,-324.83 -16.65,-216.99 18.77,-516.71 107.04,-899.15 117.61,-454.33 237.61,-870.87 359.71,-1249.35 50.48,-160.17 104.93,-319.28 164.13,-479.44 59.2,-160.17 117.35,-308.44 176.55,-444.82 59.2,-136.38 119.2,-254.79 179.99,-353.37 60.53,-98.58 118.94,-167.3 173.38,-205.1 84.31,-59.2 139.55,-54.45 167.3,12.69 27.49,67.13 33.83,173.38 18.77,318.75 -14.8,145.1 -48.1,317.69 -100.96,517.24 -52.86,199.55 -119.73,404.65 -201.93,615.29 -81.93,210.38 -176.55,413.9 -283.86,611.86 -107.31,197.96 -219.9,368.44 -337.51,511.16 -8.72,41.76 -15.86,78.76 -21.94,110.48 -6.34,31.45 -13.48,57.35 -22.2,78.76 -8.72,25.11 -15.07,48.1 -19.03,69.51 -12.42,62.9 -28.28,141.14 -47.31,233.38 -18.77,92.24 -32.24,182.9 -40.97,271.17 -8.72,88.54 -11.89,164.13 -9.51,227.3 2.38,62.9 19.82,98.58 53.65,107.31 34.09,8.46 72.68,-7.14 116.82,-47.31 44.14,-40.44 87.48,-89.33 129.24,-148.27 41.76,-59.2 79.82,-119.99 113.65,-183.16 33.83,-62.9 59.2,-117.35 75.59,-163.87 8.72,-21.41 22.2,-34.09 41.23,-38.06 18.77,-3.96 34.62,3.96 47.31,25.37 3.7,8.72 8.46,15.59 12.42,21.94 3.96,6.34 8.72,13.48 12.69,22.2 3.96,21.41 3.96,40.17 0,56.82 -8.72,33.83 -30.66,89.07 -66.34,167.04 -35.42,78.23 -81.14,158.58 -135.59,242.89 -54.45,84.58 -115.76,157.79 -182.9,220.96 -67.13,63.17 -136.38,94.62 -208.27,94.62l0.02 -0.01zm927.44 -3747.8c-54.45,88.28 -111.01,205.89 -170.21,353.37 -59.2,147.48 -116.82,306.85 -173.65,479.44 -56.82,172.85 -111.27,350.99 -163.87,536.27 -52.86,185.28 -100.17,359.71 -142.19,523.85 160.17,-302.89 283.33,-571.95 369.23,-807.71 85.9,-235.76 150.65,-432.93 192.41,-593.09 46.52,-189.24 75.85,-353.37 88.28,-492.13z"/>
   <path id="_2" class="fil3" d="M18042.55 9807.32c-16.39,-12.69 -25.11,-33.83 -25.11,-63.17 0,-41.76 3.17,-114.18 9.51,-217.52 6.08,-103.34 19.56,-240.51 40.97,-413.37 21.14,-172.85 50.48,-382.44 88.28,-630.89 37.8,-248.44 90.66,-536.27 157.79,-864.53 66.87,-349.41 149.07,-662.34 246.06,-940.12 97,-277.52 196.38,-510.9 299.72,-700.4 103.34,-189.24 205.1,-331.17 306.06,-425.79 100.7,-94.62 191.62,-131.62 271.17,-110.48 50.48,12.69 79.55,72.68 88.28,179.99 8.72,107.31 -3.17,240.51 -34.62,400.68 -31.45,159.9 -79.55,337.51 -145.1,533.1 -65.55,195.58 -142.72,390.37 -233.38,583.58 -90.92,193.2 -191.88,376.1 -302.89,548.95 -111.27,172.59 -228.09,315.31 -350.2,428.96 -21.41,138.76 -41.76,283.86 -63.17,435.3 -21.14,151.44 -40.17,306.85 -56.82,467.02 59.2,-126.34 129.51,-255.58 211.44,-387.99 81.93,-132.42 177.35,-249.24 287.03,-350.2 37.8,-37.8 82.73,-57.62 135.59,-60 52.86,-2.38 100.17,15.86 142.19,53.65 25.11,21.41 33.83,48.1 25.11,81.93 -29.07,109.69 -59.2,229.68 -88.28,359.71 -29.07,130.04 -52.86,253.2 -69.51,369.23 -16.39,115.76 -22.73,213.56 -18.77,293.37 3.96,79.55 25.11,122.11 62.9,126.07 34.09,3.96 69.51,-15.07 107.31,-56.82 37.8,-41.76 72.68,-93.83 104.13,-154.62 31.45,-60.53 60.79,-123.69 88.28,-189.24 27.75,-65.28 49.69,-120.52 66.34,-167.04 8.72,-21.41 22.2,-34.09 40.97,-38.06 19.03,-3.96 34.62,3.96 47.31,25.37 8.72,12.69 16.65,27.49 25.37,44.14 3.96,21.41 3.96,40.17 0,56.82 -8.72,33.83 -26.17,90.66 -53.65,170.21 -27.75,79.82 -63.17,160.96 -107.31,242.89 -44.14,82.2 -97,154.62 -157.79,217.78 -60.79,63.17 -126.86,94.62 -198.75,94.62 -84.31,0 -145.1,-34.62 -182.9,-104.13 -37.8,-69.25 -62.38,-157 -72.68,-261.66 -10.04,-104.93 -8.46,-221.75 6.34,-350.2 15.07,-128.71 34.62,-251.62 60,-369.23 -88.28,117.61 -178.93,272.23 -271.44,463.85 -92.24,191.62 -174.17,423.41 -246.06,697.23 0,16.39 -10.04,29.07 -31.45,37.8 -25.11,3.96 -57.62,3.17 -97.79,-3.17 -40.17,-6.34 -76.38,-24.58 -110.48,-53.65l0 0.03zm1306.18 -4164.34c-21.41,0 -60.79,44.14 -119.99,132.68 -59.2,88.28 -128.45,220.69 -208.01,397.25 -79.82,176.82 -164.13,396.98 -252.41,659.43 -88.54,262.72 -168.1,571.16 -239.99,924.53 75.85,-101.23 164.13,-232.85 265.09,-394.6 100.96,-161.49 191.62,-347.82 271.44,-558.21 75.59,-201.93 135.59,-376.37 179.73,-523.85 44.14,-147.48 75.59,-268 94.62,-362.62 19.03,-94.62 28.28,-164.13 28.28,-208.27 0,-44.14 -6.08,-66.34 -18.77,-66.34l0.01 0z"/>
   <path id="_3" class="fil3" d="M19664.04 9838.77c-122.11,-16.39 -207.21,-81.14 -255.32,-192.41 -48.1,-111.27 -75.06,-238.93 -79.03,-381.65 -3.96,-142.72 9.51,-286.24 40.97,-428.96 31.72,-142.99 63.96,-258.75 97.79,-347.03 29.34,-79.82 71.89,-164.92 126.34,-255.58 54.45,-90.66 116.82,-171.27 186.07,-242.89 69.51,-71.89 145.89,-123.96 230.21,-157.79 84.58,-33.83 172.85,-35.42 265.09,-6.34 41.76,16.65 75.59,44.14 100.96,81.93 21.41,34.09 34.62,78.23 40.97,132.68 6.34,54.45 -5.55,130.04 -34.62,227.04 -41.76,113.65 -97,212.23 -164.13,296.55 -59.2,71.89 -135.59,137.97 -230.21,198.75 -94.62,60.79 -215.41,89.07 -362.89,85.11 -12.69,59.2 -24.32,131.89 -34.62,217.78 -10.31,85.9 -15.86,172.59 -15.86,258.75 0,85.9 9.51,160.7 28.54,223.86 18.77,63.17 51.27,100.96 97.79,113.65 71.63,21.14 136.38,19.56 195.58,-3.17 59.2,-22.99 111.01,-51.27 157.79,-85.11 50.48,-41.76 98.58,-90.92 145.1,-145.1 25.11,-29.34 54.18,-67.13 88.28,-113.65 33.83,-46.52 65.28,-93.83 94.62,-141.93 29.07,-48.1 56.82,-95.41 81.93,-141.93 25.37,-46.52 44.14,-82.2 56.82,-107.31 8.72,-21.41 22.99,-32.51 44.14,-34.89 21.41,-2.11 35.42,5.55 44.14,22.2 8.72,16.65 15.07,31.45 19.03,44.14 0,8.72 -3.96,25.37 -12.69,50.48 -8.72,16.65 -21.94,44.93 -40.97,85.11 -19.03,40.44 -43.35,86.16 -72.68,139.02 -29.07,52.86 -60.53,106.51 -94.62,160.7 -33.83,54.45 -69.25,107.31 -107.31,157.79 -50.22,67.13 -107.04,123.96 -170.21,170.47 -59.2,41.76 -126.86,76.38 -205.1,104.13 -77.97,27.49 -164.92,32.24 -261.92,15.59l0.02 0.01zm38.06 -1243.01c0,8.72 -2.38,16.65 -6.34,25.37 -3.96,8.72 -7.14,16.65 -9.51,25.11 -2.38,8.72 -7.14,19.03 -15.86,31.72 84.58,-8.72 171.27,-37 261.92,-85.11 90.66,-48.1 167.3,-129.51 230.21,-243.16 38.06,-71.63 60.79,-128.45 69.51,-170.21 8.72,-41.76 8.72,-75.85 0,-100.96 -8.72,-29.07 -22.99,-52.86 -44.14,-69.51 -25.37,0 -53.65,3.17 -85.11,9.51 -31.72,6.34 -67.13,27.75 -107.31,63.17 -40.17,35.42 -84.58,93.83 -132.68,173.38 -48.1,79.82 -101.76,193.2 -160.7,340.68l0.01 0.01zm654.41 -927.43c-21.14,-3.96 -52.86,-22.73 -94.62,-56.82 -41.76,-33.83 -84.31,-68.45 -126.07,-103.87 -41.76,-35.68 -75.06,-68.72 -97.79,-97.79 -22.99,-29.34 -24.58,-44.4 -3.17,-44.4 122.37,16.65 209.06,22.2 261.92,15.86 52.86,-6.34 100.17,-5.55 141.93,3.17 37.8,12.69 66.87,37 88.28,72.68 21.14,35.42 27.49,74.8 19.03,116.56 -12.69,37.8 -37.27,67.13 -72.68,88.28 -35.42,21.41 -74.8,22.99 -116.82,6.34l-0.01 -0.01z"/>
   <path id="_4" class="fil3" d="M21503.31 9750.5c-109.69,0 -183.69,-57.62 -223.86,-173.38 -40.17,-116.03 -56.03,-253.2 -47.31,-413.37 -63.17,164.13 -131.89,310.03 -205.89,438.48 -74.27,128.71 -150.65,202.72 -231,224.13 -71.89,16.39 -128.71,3.96 -170.47,-38.06 -25.37,-21.14 -44.93,-47.31 -60,-78.76 -14.8,-31.45 -25.9,-62.38 -34.62,-91.45 -12.69,-34.09 -19.03,-67.13 -19.03,-100.96 -12.42,-100.96 -12.42,-216.99 0,-347.03 12.69,-130.3 31.72,-258.75 56.82,-384.82 25.37,-126.34 53.65,-242.89 85.11,-350.2 31.72,-107.31 60,-190.03 85.37,-249.24 8.46,-16.65 21.14,-34.09 37.8,-50.48 17.44,-12.69 40.17,-25.37 69.51,-37.8 29.87,-12.69 67.66,-22.99 114.18,-31.72 21.41,-3.96 37,0 47.31,12.69 10.31,12.69 11.89,27.49 3.17,44.14 -21.14,46.52 -44.93,113.65 -72.42,201.93 -27.75,88.28 -55.24,183.69 -82.99,287.03 -26.69,103.34 -51.27,208.27 -72.42,315.58 -21.41,107.31 -33.83,201.13 -37.8,280.69 -3.96,71.89 -5.55,133.21 -3.17,186.07 2.38,52.86 3.17,101.76 3.17,148.27 12.42,21.41 34.62,10.31 66.08,-31.45 31.72,-41.76 68.72,-101.76 111.27,-179.73 41.76,-78.23 87.48,-167.3 135.59,-268.27 48.9,-100.96 93.83,-199.55 136.64,-296.55 41.76,-97 79.55,-182.9 113.39,-258.75 34.09,-75.59 56.82,-130.04 69.51,-163.87 37.8,-139.02 73.21,-239.99 107.31,-302.89 8.46,-16.65 21.14,-34.09 37.8,-50.48 16.39,-12.69 40.17,-26.17 69.25,-40.97 29.34,-15.07 67.13,-26.17 113.65,-34.89 16.65,0 31.72,6.34 44.14,19.03 12.69,12.69 15.07,25.11 6.34,37.8 -21.14,50.48 -44.14,123.16 -69.25,217.78 -25.37,94.62 -51.27,198.75 -79.03,312.14 -27.49,113.65 -51.27,229.68 -72.42,347.03 -21.41,117.61 -35.68,224.92 -44.4,321.92 -8.46,97 -9.25,176.55 -2.91,239.72 6.08,63.17 24.32,94.62 53.39,94.62 34.09,3.96 69.51,-15.07 107.31,-56.82 38.06,-41.76 72.68,-93.83 104.13,-154.62 31.45,-60.53 60.79,-123.69 88.28,-189.24 27.75,-65.28 47.31,-120.52 60,-167.04 8.72,-21.41 22.99,-34.09 44.14,-38.06 21.41,-3.96 37.8,3.96 50.48,25.37 3.96,8.72 8.72,15.59 12.69,21.94 3.96,6.34 8.72,13.48 12.69,22.2 3.96,21.41 3.96,40.17 0,56.82 -8.72,33.83 -27.75,90.66 -56.82,170.21 -29.34,79.82 -66.34,160.96 -110.48,242.89 -44.14,82.2 -95.41,154.62 -154.62,217.78 -58.94,63.17 -123.69,94.62 -195.58,94.62l-0.03 0.02z"/>
   <path id="_5" class="fil3" d="M23096.53 8602.11c8.72,25.37 3.96,49.69 -12.69,72.68 -16.39,22.73 -37.8,37 -62.9,40.97 -59.2,8.72 -132.68,21.41 -220.96,37.8 -88.28,16.65 -180.52,48.1 -277.52,94.62 25.11,59.2 51.27,139.82 78.76,242.89 27.49,103.34 28.28,209.06 3.17,318.75 -12.69,54.45 -29.07,104.93 -50.48,151.44 -21.41,46.52 -48.1,92.24 -81.93,138.76 -34.09,46.52 -79.82,85.9 -139.02,119.99 -50.48,29.07 -115.76,46.52 -195.58,50.48 -79.55,3.96 -147.48,-10.31 -201.66,-44.14 -54.45,-34.09 -94.88,-75.85 -119.99,-126.34 -21.41,-46.52 -32.24,-103.34 -34.62,-170.21 -2.38,-67.13 25.9,-149.07 85.11,-246.06 46.52,-75.85 95.41,-157.79 148.27,-246.06 52.86,-88.54 120.52,-160.17 205.1,-214.61 -38.06,-59.2 -76.65,-114.44 -116.82,-167.3 -40.17,-52.86 -70.04,-107.31 -91.45,-163.87 -21.41,-56.82 -30.92,-119.2 -28.54,-186.33 2.38,-66.87 22.2,-145.1 60,-233.38 54.45,-122.11 114.44,-207.48 179.99,-255.58 65.28,-48.1 126.86,-78.76 186.07,-91.45 67.13,-16.65 136.38,-15.07 208.27,6.34 33.83,16.65 60.53,44.14 81.93,81.93 16.65,34.09 28.28,76.65 34.62,129.51 6.34,52.86 -0.79,122.9 -21.94,211.18 -25.37,88.54 -56.03,155.41 -91.45,201.93 -35.68,46.52 -71.89,75.85 -107.31,88.54 -35.68,12.42 -67.13,11.63 -94.62,-3.17 -27.75,-15.07 -43.35,-38.85 -47.31,-72.68 -3.96,-25.11 0.79,-57.62 15.59,-97.79 15.07,-40.17 29.34,-78.76 44.14,-116.82 15.07,-37.8 24.58,-71.63 28.54,-100.96 3.96,-29.07 -6.34,-44.14 -31.45,-44.14 -21.41,0 -42.02,6.34 -63.17,19.03 -21.41,12.69 -40.97,31.45 -60,56.82 -19.03,25.11 -38.59,65.28 -60,119.73 -21.14,50.48 -29.07,94.88 -25.11,132.68 3.96,37.8 15.59,73.21 34.62,107.31 19.03,33.83 44.14,69.25 75.59,107.04 31.72,38.06 66.34,84.58 104.13,139.02 0,0 2.38,2.11 6.34,6.08 193.2,-84.31 384.82,-136.38 574.33,-157.52 46.52,0 73.21,21.14 81.93,62.9l0.02 -0.01zm-1041.09 1034.74c37.8,8.72 74.8,2.38 110.48,-18.77 35.42,-21.41 66.87,-51.27 94.62,-91.45 27.49,-40.17 51.27,-85.37 72.42,-135.85 21.41,-50.48 34.09,-100.96 38.06,-151.44 0,-33.83 -8.72,-76.38 -25.37,-129.24 -16.65,-52.86 -31.45,-93.83 -44.14,-122.9 -46.52,33.83 -84.31,81.93 -113.65,145.1 -29.07,62.9 -62.9,119.73 -100.96,170.21 -37.8,54.45 -65.28,104.93 -81.93,151.44 -16.65,37.8 -24.58,75.06 -22.2,110.48 2.38,35.42 26.17,60 72.68,72.42l-0.01 0z"/>
   <path class="fil4" d="M13826.93 6610.06c0,145.89 -46.78,266.15 -140.34,359.98 -92.24,93.56 -211.44,140.34 -357.34,140.34 -144.57,0 -264.83,-46.78 -357.34,-140.34 -93.56,-93.83 -140.34,-214.08 -140.34,-359.98l0 -1878.66c0,-121.58 -42.82,-224.66 -128.45,-310.29 -85.63,-85.63 -188.71,-128.45 -309.23,-128.45 -120.26,0 -223.33,42.82 -308.97,128.45 -85.63,85.63 -128.45,188.71 -128.45,310.29l0 1878.66c0,145.89 -46.78,266.15 -140.61,359.98 -92.24,93.56 -211.18,140.34 -357.07,140.34 -144.57,0 -265.09,-46.78 -357.34,-140.34 -93.56,-93.83 -140.34,-214.08 -140.34,-359.98l0 -1882.62c0,-120.52 -43.08,-223.33 -128.71,-307.65 -85.63,-84.31 -188.45,-127.13 -308.97,-127.13 -120.52,0 -223.33,42.82 -308.97,128.45 -85.63,85.63 -128.45,188.71 -128.45,310.29l0 1878.66c0,145.89 -47.05,266.15 -140.61,359.98 -92.24,93.56 -211.44,140.34 -357.34,140.34 -144.31,0 -264.83,-46.78 -357.07,-140.34 -93.83,-93.83 -140.61,-214.08 -140.61,-359.98l0 -2812.43c0,-145.89 46.78,-266.42 140.61,-359.98 93.56,-93.83 212.76,-140.61 358.39,-140.61 139.29,0 254.26,42.82 345.44,129.77 187.13,-86.96 383.77,-129.77 588.6,-129.77 356.01,0 667.63,116.56 935.36,348.09 267.47,-231.53 579.35,-348.09 935.1,-348.09 396.19,0 734.76,139.29 1014.39,418.92 279.63,279.63 418.65,618.2 418.65,1015.45l0 1878.66 0.01 -0.01z"/>
   <path id="_1_0" class="fil4" d="M17825.82 5203.71c0,531.25 -184.75,982.15 -553.98,1351.37 -369.23,370.82 -818.81,555.3 -1348.73,555.3 -529.93,0 -979.5,-184.48 -1348.73,-555.3 -369.23,-369.23 -553.98,-820.13 -553.98,-1351.37 0,-530.98 184.75,-981.88 553.98,-1351.37 369.23,-370.55 818.81,-555.3 1348.73,-555.3 529.93,0 979.5,184.75 1348.73,555.3 369.23,369.49 553.98,820.39 553.98,1351.37zm-995.62 0c0,-252.67 -88.28,-468.08 -264.83,-646.22 -175.23,-176.55 -389.32,-264.83 -642.25,-264.83 -252.94,0 -467.02,88.28 -642.25,264.83 -176.55,178.14 -265.09,393.55 -265.09,646.22 0,252.94 88.54,468.34 265.09,646.48 175.23,176.55 389.32,264.83 642.25,264.83 252.94,0 467.02,-88.28 642.25,-264.83 176.55,-178.14 264.83,-393.55 264.83,-646.48z"/>
   <path id="_2_1" class="fil4" d="M21519.44 3784.15c0,76.38 -20.09,155.15 -61.58,238.14l-1359.57 2718.87c-33.3,66.87 -73.48,133.74 -118.94,200.87 -97.79,112.33 -220.69,168.36 -370.55,168.36 -147.22,0 -271.7,-56.03 -370.82,-168.36 -22.73,-25.64 -61.58,-91.18 -116.29,-199.55l-1362.21 -2720.19c-38.85,-79.03 -58.94,-157.79 -58.94,-238.14 0,-136.38 53.65,-251.62 159.37,-346.5 105.72,-93.83 225.98,-140.61 362.62,-140.61 191.35,0 333.02,92.51 426.85,276.99l960.74 1917.51 957.83 -1917.51c93.83,-184.48 236.81,-276.99 429.49,-276.99 136.64,0 258.22,46.78 363.94,140.61 105.72,94.88 158.05,210.12 158.05,346.5l0.01 0z"/>
   <path id="_3_2" class="fil4" d="M24858.36 5891.43c0,77.7 -25.37,165.98 -74.8,263.77 -148.54,290.2 -378.74,523.05 -693.26,698.55 -301.04,171 -619.26,256.64 -953.87,256.64 -527.28,0 -976.86,-185.8 -1346.09,-556.36 -370.55,-370.82 -555.3,-820.39 -555.3,-1350.32 0,-529.66 184.75,-979.24 555.3,-1350.05 369.23,-370.55 818.81,-556.62 1346.09,-556.62 258.22,0 516.45,58.94 777.31,176.82 259.54,117.61 476.27,272.76 651.77,465.44 190.03,210.12 286.24,408.08 286.24,592.83 0,171.27 -82.99,303.68 -250.29,400.15l-1866.5 1075.71c127.13,70.83 260.87,107.04 401.47,107.04 216.73,0 395.92,-61.58 539.18,-186.07 97.79,-112.33 195.32,-224.66 290.47,-335.66 131.09,-131.36 254.26,-196.9 370.55,-196.9 135.06,0 255.58,49.69 362.62,145.89 105.72,97.79 159.11,214.08 159.11,349.14zm-1313.84 -1498.59c-127.13,-66.87 -262.19,-100.17 -406.76,-100.17 -238.14,0 -445.61,81.67 -620.84,246.06 -173.91,164.66 -267.74,366.85 -279.63,607.63l1307.24 -753.52 -0.01 0z"/>
   <path id="_4_3" class="fil5 str0" d="M13826.93 6610.06c0,145.89 -46.78,266.15 -140.34,359.98 -92.24,93.56 -211.44,140.34 -357.34,140.34 -144.57,0 -264.83,-46.78 -357.34,-140.34 -93.56,-93.83 -140.34,-214.08 -140.34,-359.98l0 -1878.66c0,-121.58 -42.82,-224.66 -128.45,-310.29 -85.63,-85.63 -188.71,-128.45 -309.23,-128.45 -120.26,0 -223.33,42.82 -308.97,128.45 -85.63,85.63 -128.45,188.71 -128.45,310.29l0 1878.66c0,145.89 -46.78,266.15 -140.61,359.98 -92.24,93.56 -211.18,140.34 -357.07,140.34 -144.57,0 -265.09,-46.78 -357.34,-140.34 -93.56,-93.83 -140.34,-214.08 -140.34,-359.98l0 -1882.62c0,-120.52 -43.08,-223.33 -128.71,-307.65 -85.63,-84.31 -188.45,-127.13 -308.97,-127.13 -120.52,0 -223.33,42.82 -308.97,128.45 -85.63,85.63 -128.45,188.71 -128.45,310.29l0 1878.66c0,145.89 -47.05,266.15 -140.61,359.98 -92.24,93.56 -211.44,140.34 -357.34,140.34 -144.31,0 -264.83,-46.78 -357.07,-140.34 -93.83,-93.83 -140.61,-214.08 -140.61,-359.98l0 -2812.43c0,-145.89 46.78,-266.42 140.61,-359.98 93.56,-93.83 212.76,-140.61 358.39,-140.61 139.29,0 254.26,42.82 345.44,129.77 187.13,-86.96 383.77,-129.77 588.6,-129.77 356.01,0 667.63,116.56 935.36,348.09 267.47,-231.53 579.35,-348.09 935.1,-348.09 396.19,0 734.76,139.29 1014.39,418.92 279.63,279.63 418.65,618.2 418.65,1015.45l0 1878.66 0.01 -0.01z"/>
   <path id="_5_4" class="fil5 str0" d="M17825.82 5203.71c0,531.25 -184.75,982.15 -553.98,1351.37 -369.23,370.82 -818.81,555.3 -1348.73,555.3 -529.93,0 -979.5,-184.48 -1348.73,-555.3 -369.23,-369.23 -553.98,-820.13 -553.98,-1351.37 0,-530.98 184.75,-981.88 553.98,-1351.37 369.23,-370.55 818.81,-555.3 1348.73,-555.3 529.93,0 979.5,184.75 1348.73,555.3 369.23,369.49 553.98,820.39 553.98,1351.37zm-995.62 0c0,-252.67 -88.28,-468.08 -264.83,-646.22 -175.23,-176.55 -389.32,-264.83 -642.25,-264.83 -252.94,0 -467.02,88.28 -642.25,264.83 -176.55,178.14 -265.09,393.55 -265.09,646.22 0,252.94 88.54,468.34 265.09,646.48 175.23,176.55 389.32,264.83 642.25,264.83 252.94,0 467.02,-88.28 642.25,-264.83 176.55,-178.14 264.83,-393.55 264.83,-646.48z"/>
   <path id="_6" class="fil5 str0" d="M21519.44 3784.15c0,76.38 -20.09,155.15 -61.58,238.14l-1359.57 2718.87c-33.3,66.87 -73.48,133.74 -118.94,200.87 -97.79,112.33 -220.69,168.36 -370.55,168.36 -147.22,0 -271.7,-56.03 -370.82,-168.36 -22.73,-25.64 -61.58,-91.18 -116.29,-199.55l-1362.21 -2720.19c-38.85,-79.03 -58.94,-157.79 -58.94,-238.14 0,-136.38 53.65,-251.62 159.37,-346.5 105.72,-93.83 225.98,-140.61 362.62,-140.61 191.35,0 333.02,92.51 426.85,276.99l960.74 1917.51 957.83 -1917.51c93.83,-184.48 236.81,-276.99 429.49,-276.99 136.64,0 258.22,46.78 363.94,140.61 105.72,94.88 158.05,210.12 158.05,346.5l0.01 0z"/>
   <path id="_7" class="fil5 str0" d="M24858.36 5891.43c0,77.7 -25.37,165.98 -74.8,263.77 -148.54,290.2 -378.74,523.05 -693.26,698.55 -301.04,171 -619.26,256.64 -953.87,256.64 -527.28,0 -976.86,-185.8 -1346.09,-556.36 -370.55,-370.82 -555.3,-820.39 -555.3,-1350.32 0,-529.66 184.75,-979.24 555.3,-1350.05 369.23,-370.55 818.81,-556.62 1346.09,-556.62 258.22,0 516.45,58.94 777.31,176.82 259.54,117.61 476.27,272.76 651.77,465.44 190.03,210.12 286.24,408.08 286.24,592.83 0,171.27 -82.99,303.68 -250.29,400.15l-1866.5 1075.71c127.13,70.83 260.87,107.04 401.47,107.04 216.73,0 395.92,-61.58 539.18,-186.07 97.79,-112.33 195.32,-224.66 290.47,-335.66 131.09,-131.36 254.26,-196.9 370.55,-196.9 135.06,0 255.58,49.69 362.62,145.89 105.72,97.79 159.11,214.08 159.11,349.14zm-1313.84 -1498.59c-127.13,-66.87 -262.19,-100.17 -406.76,-100.17 -238.14,0 -445.61,81.67 -620.84,246.06 -173.91,164.66 -267.74,366.85 -279.63,607.63l1307.24 -753.52 -0.01 0z"/>
  </g>
 </g>
</svg>
