<?xml version="1.0" encoding="UTF-8"?>
<!DOCTYPE svg PUBLIC "-//W3C//DTD SVG 1.1//EN" "http://www.w3.org/Graphics/SVG/1.1/DTD/svg11.dtd">
<!-- Creator: CorelDRAW 2017 -->
<svg xmlns="http://www.w3.org/2000/svg" xml:space="preserve" width="209mm" height="139mm" version="1.1" style="shape-rendering:geometricPrecision; text-rendering:geometricPrecision; image-rendering:optimizeQuality; fill-rule:evenodd; clip-rule:evenodd"
viewBox="0 0 20900 13900"
 xmlns:xlink="http://www.w3.org/1999/xlink">
 <defs>
  <style type="text/css">
   <![CDATA[
    .str2 {stroke:#EFC64B;stroke-width:423.33;stroke-miterlimit:10;stroke-opacity:0.200000}
    .str0 {stroke:white;stroke-width:388.06;stroke-miterlimit:10;stroke-opacity:0.200000}
    .str1 {stroke:white;stroke-width:176.39;stroke-miterlimit:10;stroke-opacity:0.200000}
    .fil32 {fill:none;fill-rule:nonzero}
    .fil28 {fill:none;fill-rule:nonzero}
    .fil38 {fill:#D36135}
    .fil35 {fill:#FCC351}
    .fil37 {fill:#FCC351}
    .fil33 {fill:#FEFEFE;fill-rule:nonzero}
    .fil24 {fill:#FEFEFE;fill-rule:nonzero}
    .fil21 {fill:#23233E;fill-rule:nonzero}
    .fil19 {fill:#282E73;fill-rule:nonzero}
    .fil8 {fill:#292949;fill-rule:nonzero}
    .fil16 {fill:#2F3789;fill-rule:nonzero}
    .fil22 {fill:#353A85;fill-rule:nonzero}
    .fil13 {fill:#474EBB;fill-rule:nonzero}
    .fil1 {fill:#58595B;fill-rule:nonzero}
    .fil34 {fill:#74B3CE;fill-rule:nonzero}
    .fil18 {fill:#7690C9;fill-rule:nonzero}
    .fil2 {fill:#8CABEF;fill-rule:nonzero}
    .fil4 {fill:#B99A6F;fill-rule:nonzero}
    .fil7 {fill:#BAB7C3;fill-rule:nonzero}
    .fil12 {fill:#BDBDBD;fill-rule:nonzero}
    .fil6 {fill:#C8B3B3;fill-rule:nonzero}
    .fil20 {fill:#CCBEBE;fill-rule:nonzero}
    .fil15 {fill:#D67086;fill-rule:nonzero}
    .fil9 {fill:#D7263D;fill-rule:nonzero}
    .fil3 {fill:#D7263D;fill-rule:nonzero}
    .fil5 {fill:#DDDAE8;fill-rule:nonzero}
    .fil23 {fill:#E0C0A4;fill-rule:nonzero}
    .fil14 {fill:#EACDB0;fill-rule:nonzero}
    .fil10 {fill:#EBCEB1;fill-rule:nonzero}
    .fil11 {fill:#F7F7F7;fill-rule:nonzero}
    .fil0 {fill:#FCC351;fill-rule:nonzero}
    .fil17 {fill:white;fill-rule:nonzero}
    .fil25 {fill:#E6E6E6;fill-opacity:0.200000}
    .fil26 {fill:#A3C654;fill-rule:nonzero;fill-opacity:0.200000}
    .fil27 {fill:#ACCAFB;fill-rule:nonzero;fill-opacity:0.200000}
    .fil30 {fill:#C3BFBC;fill-rule:nonzero;fill-opacity:0.200000}
    .fil31 {fill:#EFC64B;fill-rule:nonzero;fill-opacity:0.200000}
    .fil29 {fill:white;fill-rule:nonzero;fill-opacity:0.200000}
    .fil36 {fill:url(#id1)}
   ]]>
  </style>
    <clipPath id="id0" style="clip-rule:nonzero">
     <path d="M12536.34 8885.49l-2909.14 1291.36 -2381.5 -5364.93 2909.07 -1291.34 2381.57 5364.91z"/>
    </clipPath>
  <linearGradient id="id1" gradientUnits="userSpaceOnUse" x1="8386.69" y1="5601.44" x2="10148.55" y2="4753.9">
   <stop offset="0" style="stop-opacity:1; stop-color:#D7263D"/>
   <stop offset="1" style="stop-opacity:1; stop-color:#D36135"/>
  </linearGradient>
 </defs>
 <g id="Camada_x0020_1">
  <metadata id="CorelCorpID_0Corel-Layer"/>
  <g id="_2779268868400">
   <path class="fil0" d="M9497.09 13891.24c-2178.65,0 -4361.06,-59.96 -6539.76,-114.73 -744.29,-18.75 -1547.1,19.54 -2268.98,-257.14 -802.75,-307.52 -955.2,-1260.66 -72.18,-1734.77 371.63,-199.43 785.66,-224.03 1159.22,-417.11 59.07,-30.54 120.68,-69.49 152.7,-142.18 62.58,-142.15 -26.79,-328.32 -139.6,-396.68 -112.81,-68.38 -242.3,-63.97 -362.53,-104.13 -424.96,-141.91 -513.12,-942.4 -245.22,-1343.81 271.33,-406.59 647.34,-551.36 1045.2,-596.16l144.7 281.79c67.38,131.21 200.51,206.59 338.51,206.59 58.44,0 117.78,-13.54 173.36,-42.06l869.95 -446.72c269.21,-4.46 538.45,-11.57 807.71,-20.06 60.25,-1.88 120.52,-3.85 180.78,-5.87l-82.04 770.69c-23.33,219.04 135.36,415.53 354.41,438.84l2447.69 260.54c14.35,1.55 28.59,2.28 42.7,2.28 201.32,0 374.37,-151.97 396.14,-356.67l129.24 -1214.1c59.02,-1.3 117.94,-2.56 176.95,-3.81l-33.76 167.61 1289.65 3097.82 332.37 0 -237.05 -1449.49 97.87 220.49c27.36,61.61 82.84,99.85 136.79,99.85 15.09,0 30.06,-2.99 44.25,-9.3l689.48 -306.07 159.47 1338.17 345.67 -13.3 153.81 -1617.37 1336.06 -593.12c34.98,16.73 73.14,28.36 113.56,33.8l8.78 1.08c3.18,0.51 6.5,0.98 9.83,1.43l251.28 33.83 546.57 2351.75 305.66 -21.82 5.71 -2214.42 1330.23 179.11c18.03,2.43 36.06,3.6 53.62,3.6 196.75,0 367.92,-145.43 394.88,-345.69l124.8 -926.77c290.73,19.67 581.15,45.11 871.26,78.26 545.42,62.32 3126.24,-9.07 3406.5,823.68 28.04,83.35 28.04,170.83 -14.02,252.13 -105.08,202.22 -450.19,338.85 -556.04,540.87 -152.22,290.02 207.69,482.24 649.1,512.13 368.69,24.96 892.53,187.72 684.53,461.21 -77.34,101.55 -265.62,158.53 -449.27,189.57 -183.65,30.98 -378.55,44.68 -547.87,96.26 -219.4,66.74 -377.16,197.3 -410.75,339.69 -91.67,390.36 541.71,494.06 1026.88,613.45 276.86,68.07 557.88,198.24 556.81,372.8 -1.85,250.63 -534.47,362.58 -960.32,405.38 -930.13,93.86 -2975.72,194.51 -3909.85,274.15 -2165.13,184.67 -4338.39,244.5 -6515.44,244.5z"/>
   <polygon class="fil1" points="1698.23,12131.6 1683.24,12304.05 2013.03,12506.39 2200.42,12348.98 2043.03,12161.64 1713.24,11959.16 "/>
   <polygon class="fil2" points="1609.46,6880.33 1563.9,7403.91 2064.58,9733.51 1685.01,12074.44 2021.04,12172.69 3062.45,9380.72 3109.47,8531.16 2937.5,6775.13 "/>
   <polygon class="fil2" points="3978.72,6922.07 4162.09,9123.37 3950.49,11993.72 3631.26,12016.6 3241.8,9410.01 2617.11,6820.21 "/>
   <polygon class="fil1" points="3642.74,12151.15 4000.34,12299 4160.58,12114.05 3975.61,11953.85 3630.38,11978.58 "/>
   <path class="fil3" d="M4488.86 6287.29c-338.11,-613.98 -493.69,-1297.3 -687.17,-1967.6 -57.16,-197.76 -116.34,-399.73 -235.7,-567.44 -137.06,-192.59 -317.7,-273.27 -514.77,-298.31 -250.86,-31.88 -528.31,26.41 -776.43,58.94 -128.63,477.9 -270.71,952.21 -426.03,1422.11 -32.19,97.42 -66.05,194.28 -100.23,291.04l0 0c0,0 -346.88,1292.6 -169.47,2293.72 1.74,9.92 3.31,19.58 4.91,29.31 26.47,3.26 51.86,6.65 75.62,10.3 354.41,54.62 714.3,76.13 1072.41,54.65 317.67,-19.04 633.7,-72.46 938.83,-163.3 417.63,-124.35 921.35,-105.17 1253.74,-399.83 -110.94,-201.48 -324.75,-562.09 -435.71,-763.59z"/>
   <polygon class="fil4" points="5697.91,3674.79 5933.02,3491.24 5858.95,3387.32 5670.12,3477.39 5657.9,3411.99 5475.83,3593.56 5538.25,3711.96 "/>
   <path class="fil3" d="M3263.37 3517.14c147.45,17.67 296.23,122.57 457.23,211.85 189.14,104.9 378.29,209.83 567.45,314.73l1228.81 -532.31 111.86 241.29 -1192.58 853.56c-280.54,-82.27 -561.07,-164.54 -841.6,-246.8 -154.7,-45.37 -350.1,-71.18 -493.53,-145.6 -211.03,-109.45 -335.72,-347.15 -191.6,-522.68 120.81,-147.17 236.97,-188.06 353.96,-174.04z"/>
   <path class="fil5" d="M4886.21 8201.96l-2003.7 1028.89c-186.8,95.91 -415.94,22.25 -511.87,-164.53l-1028.88 -2003.71c-95.91,-186.78 -22.25,-415.95 164.53,-511.85l2003.72 -1028.88c186.79,-95.92 415.94,-22.26 511.85,164.51l669.51 1303.87 359.39 699.86c95.89,186.76 22.23,415.95 -164.55,511.84z"/>
   <polygon class="fil6" points="4658.79,8318.74 4658.79,8318.74 4795.18,8248.7 4795.18,8248.7 "/>
   <polygon class="fil7" points="4658.79,8318.74 4723.9,7053.6 4888.3,7373.8 4795.18,8248.7 "/>
   <polygon class="fil4" points="1608.81,6409.18 1775.52,6656.52 1884.35,6589.87 1807.68,6395.22 1873.76,6387.58 1705.33,6193.31 1582.85,6247.33 "/>
   <polygon class="fil3" points="945.43,4744.48 1535.94,6334.72 1784.42,6239.98 1579.06,4997.94 "/>
   <polygon class="fil3" points="945.43,4744.48 2276.04,3502.6 2238.02,4541.72 1388.97,5124.66 "/>
   <path class="fil4" d="M3038.35 2593.71c-224.59,-365.97 -836.11,-368.17 -862.45,124.62 -7.91,148.08 2.26,300.83 63.04,436.08 60.8,135.26 179.34,250.92 325.15,277.98l2.48 0.4c3.49,37.99 6.95,75.97 10.42,113.96 0.73,8.17 1.86,17.11 7.85,22.68 6.86,6.37 17.35,6 26.64,5.23 45.47,-3.76 90.9,-7.52 136.36,-11.3 22.52,-1.84 45.94,-3.99 65.32,-15.62 42.4,-25.44 48.58,-84.91 39.3,-133.5 -2.21,-11.6 -5.07,-23.22 -7.98,-34.84 238.95,-150.05 340.7,-546.5 193.87,-785.69z"/>
   <path class="fil8" d="M2081.84 2138.49c-108.13,20.91 -160.53,151.31 -236.89,237.01 -63.54,71.29 -148.89,114.29 -217.91,179.15 -69.03,64.85 -122.86,168.42 -91.4,263.26 -98,-13.94 -203.28,-26.55 -289.79,24.02 -86.51,50.55 -133.65,191.71 -64.49,270.01 61.9,70.13 175.36,51.82 239.22,119.83 101,107.57 18.83,358.82 152.18,406.81 32.04,11.52 67.68,4.51 99.51,16.78 39.53,15.27 65,56.42 92.49,91.31 124.63,158.1 347.14,211.68 517.6,124.66 92.89,-91.3 143.68,-230.21 140.02,-367.48 -4.41,-165.46 -102.18,-189.34 -164.71,-324.11 -68.34,-147.27 -76.7,-325.79 -22.43,-477.97 35.33,-99.04 101.32,-196.92 192.59,-239.16 37.1,-17.2 36.3,19.1 69.02,-25.82 14.05,-19.28 22.38,-76.39 19.49,-101.37 -132.6,-46.71 -292.28,-224.43 -434.5,-196.93z"/>
   <path class="fil8" d="M3237.18 1944.87c58.19,-3.93 114.96,-26.32 173.25,-21.97 87.56,6.55 110.69,86.86 156.23,147.68 50.41,67.34 120.74,156.79 191.41,198.1 50.93,29.75 109.81,36.19 165.15,53.51 55.36,17.3 112.69,51.44 132.54,110.78 18.81,56.21 -1.12,119.68 13.04,177.44 22.64,85.61 52.03,123.18 56.35,217.3 2.2,48.56 3.76,100.28 -18.66,141.84 -29.52,54.75 -91.66,75.78 -149.17,85.81 -57.53,10.05 -118.99,14.76 -166.2,51.63 -102.42,79.99 -39.35,189.86 -35.6,299.22 5.71,166.43 -137.25,315.07 -288.95,308.6 -128.62,-5.5 -239.94,-113.39 -280.34,-244.38 -20.23,-65.57 -15.7,-134.92 -36.64,-200.33 -20.18,-63.05 -85.84,-137.15 -46.69,-206.62 9.54,-16.93 24.97,-29.5 32.51,-47.62 6.11,-14.67 6.41,-31.53 4.64,-47.63 -6.13,-55.85 -37.3,-108.12 -81.64,-136.92 -31.85,-20.69 -70.49,-30.41 -95.96,-59.96 -29.18,-33.85 -33.18,-84.02 -45.88,-128.31 -30.62,-107.08 -124.21,-189.74 -225.8,-199.44 -66.96,-6.41 -124.37,-3.9 -188.97,-26.76 -9.83,-3.49 -159.94,-64.33 -155.21,-41.43 -8.24,-39.86 2.24,-80.98 13.99,-119.44 19.32,-63.2 43.19,-126.56 84.72,-174.98 134.28,-156.52 221.94,66.51 346.72,-10.85 30.12,-18.64 44.13,-57.2 67.22,-85.4 43.6,-53.25 115.97,-65.18 181.6,-59.9 65.63,5.32 130.78,24.44 196.34,20.03z"/>
   <polygon class="fil8" points="19614.7,12135.33 19672.78,12319.86 19361.87,12620.6 19119.21,12494.17 19245.7,12251.53 19556.61,11950.92 "/>
   <polygon class="fil9" points="18440.68,6383.56 18617.09,6943.88 18634.5,9607.19 19615.16,12069.78 19272.35,12258.3 17460.33,9463.7 17203.34,8548 16966.07,6590.17 "/>
   <polygon class="fil9" points="16307.89,6632.14 16279.23,9101 16744.52,12284.24 17102.27,12284.24 17328.3,9347.04 17817.77,6409.81 "/>
   <polygon class="fil8" points="17100.27,12435.13 16713.4,12628.58 16519.89,12435.13 16713.4,12241.68 17100.27,12241.68 "/>
   <path class="fil9" d="M18091.1 3325.18l-970.18 -113.33c0,0 -458.83,68.18 -819.2,1329.78 -360.37,1261.59 -390.26,2978.13 -390.26,2978.13 0,0 2714.41,479.92 3122.55,399.82 0,0 96.29,-1109.46 -285.19,-2327.03 -240.65,-767.83 -657.72,-2267.37 -657.72,-2267.37z"/>
   <polygon class="fil10" points="16356.27,1083.25 16503.25,750.67 16631.43,801.38 16575.2,1049.32 16648.54,1041.56 16492,1312.27 16350.72,1279.84 "/>
   <polygon class="fil9" points="17140.17,3217.15 16263.51,2832.98 16571.81,1237.47 16287.09,1189.13 15546.16,3019.65 16480.14,4751.2 "/>
   <path class="fil10" d="M18013.6 2129.91c-234.03,-77.33 -475.46,-149.9 -719.97,-127.03 -53.62,5 -111.86,17.52 -144.98,59.88 -12.95,16.44 -20.8,36.1 -28.2,55.56 -83.5,218.63 -194.43,544.06 -67.64,766.39 24.2,42.4 58.86,77.66 96.92,107.3 50.99,39.61 108.92,68.95 170.09,87.67 -18.64,54.55 -42.37,107.46 -70.56,157.76 106.92,87.74 195.66,100.43 356.51,50.02 9.71,-68.29 19.42,-136.57 29.13,-204.89 32.2,-9.36 63.93,-21.57 94.13,-37.27 116.63,-60.76 199.83,-162.61 254.22,-280.5 59.16,-128.37 136.19,-248.28 191.66,-379.63 20.34,-47.84 38.06,-102.99 16.64,-150.31 -22.8,-50.4 -80.89,-72.71 -133.42,-90.19 -14.64,-4.92 -29.58,-9.85 -44.53,-14.76z"/>
   <path class="fil8" d="M17203.5 2176.73c126.18,-63.97 307.21,-78.53 417.53,-59.06 334.02,58.89 431.86,318.58 418.14,629.74 104.77,-108.28 293.82,-238.61 319.85,-389.11 21.27,-123.19 21.57,-294.13 -36.97,-408.42 -54.7,-106.91 -215.39,-179.05 -308.3,-247.28 -87.66,-64.33 -175.18,-128.65 -262.84,-192.98 -18.18,-13.37 -36.98,-27.01 -58.7,-33.14 -25.89,-7.23 -53.31,-3.28 -79.5,0.74 -226.33,34.36 -452.51,68.7 -678.68,103.06 -43.45,6.59 -93.37,17.62 -113.09,56.88 -12.02,23.85 -9.4,52.18 -6.31,78.75 13.4,116.97 49.29,238.8 49.29,355.88 6.63,68.7 11.41,417.87 134.66,390.26 40.83,-53.63 53.31,-123.58 86.9,-182.08 24.8,-43.23 66.87,-77.29 118.02,-103.24z"/>
   <path class="fil11" d="M18780.56 8205.44l-2119.08 645.41c-210.77,64.18 -433.56,-54.61 -497.8,-265.33l-645.25 -2118.95c-64.25,-210.74 54.39,-433.6 265.15,-497.78l2119.09 -645.4c210.61,-64.2 433.55,54.61 497.8,265.34l645.25 2118.94c64.24,210.72 -54.54,433.6 -265.16,497.77z"/>
   <path class="fil12" d="M15768.49 6843.32l-147.29 -18.47 381.01 1210.71 96.3 -767.73c26.03,-208.34 -121.72,-398.39 -330.02,-424.51z"/>
   <polygon class="fil10" points="18414.33,6042.11 18157.81,6292.22 18046.11,6187.2 18183.85,5976.98 18108.04,5951.81 18353.79,5764.5 18484.59,5858.04 "/>
   <path class="fil9" d="M19573.87 4959.92c-237.42,-343.67 -794.23,-1266.8 -1148.29,-1504.44 -100.45,-67.51 -214.16,-124.27 -335.1,-126.12 -121.1,-1.86 -249.59,63.96 -289.5,178.26 -44.06,126.17 -24.03,245.82 29.12,358 96.91,204.88 304.45,384.74 433.56,533.57 145.59,167.6 499.49,438.58 609.03,566.24l701.18 -5.51z"/>
   <polygon class="fil9" points="18876.86,4959.92 18268.59,5796.3 18433.44,6024.4 19535.81,5188.04 19573.87,4959.92 19231.83,4820.55 "/>
   <polygon class="fil1" points="6289.99,12271.34 6287.11,12484.47 5874.23,12703.17 5672.11,12492.83 5879.99,12276.92 6292.87,12058.35 "/>
   <polygon class="fil13" points="6294.04,7957.08 6312.37,12202.47 5904.6,12292.48 5266.76,8725.43 4890.46,7608.11 "/>
   <polygon class="fil13" points="7717.2,9304.81 7115.54,11839.37 6731.91,11820.22 6810.53,9300.79 6306.18,7963.2 7720.24,7669.24 "/>
   <polygon class="fil1" points="6725.66,11990.01 7129.67,12228.12 7347.94,12020.99 7151.37,11793.24 6736.52,11772.49 "/>
   <path class="fil0" d="M8012.26 7197.02c-111.65,-249.89 -39.27,-573.41 -101.5,-840.6 -56.19,-241.36 -301.28,-441.99 -367.09,-685.65 -76.57,-283.42 -161.35,-564.89 -264.98,-839.7 -118.5,-314.29 -261.49,-619.32 -427.02,-911.54 -126.03,-222.51 -289.12,-592.17 -494.2,-750.26 -6.82,-5.26 -13.88,-10.22 -21.17,-14.89 -255.38,-163.76 -801.19,14.82 -1095.41,50.68 28.32,-3.45 -78.67,1676.51 -70.93,1820.95 28.23,526.6 -69.22,1074.61 -234.28,1580.01 -56.04,171.57 -124.29,339.97 -170.21,514.1l539.27 1058.6 24.54 325.79c144.47,32.77 289.55,58.86 437.52,59.99 271.41,2.1 535.25,-79.93 800.75,-136.38 313.93,-66.79 634.44,-98.25 949.13,-161.41 314.69,-63.14 652.01,-861 652.01,-861 -75.89,-111.38 -88.14,-103.69 -93.92,-96.02 -6.04,8.03 -4.98,16.07 -62.51,-112.67z"/>
   <path class="fil14" d="M6516.81 1163.66c-25.22,-45.26 -50.38,-90.49 -75.57,-135.74 -44.13,-11.8 -88.24,-23.62 -132.33,-35.44 -2.22,-10.63 -4.51,-21.23 -6.75,-31.86 12.96,-3.28 25.91,-6.57 38.87,-9.87 -33.8,-20.29 -67.59,-40.57 -101.4,-60.85 -10.62,-30.19 -21.3,-60.36 -31.91,-90.54 24.45,-34.87 48.9,-69.74 73.35,-104.59 42.07,-12.86 84.12,-25.77 126.21,-38.64 31.79,27.78 64.56,56.19 95.71,83.6 22.22,51.4 25.16,91.1 51.95,145.25 26.76,54.15 77.32,122.71 108.64,179.6 -48.18,33.49 -97.96,65.98 -146.77,99.08z"/>
   <path class="fil0" d="M6626.88 938.17c-87.79,49.91 -175.55,99.89 -263.35,149.84 79.65,192.31 393.72,1056.46 419.5,1114.45l-3.81 2.45 -543.57 905.35 566.47 853.59 688.25 -1475.4c-12.62,-16.94 -204.88,-843.12 -863.49,-1550.28z"/>
   <path class="fil15" d="M5901.18 2331.17c148.03,26.93 330.55,153.42 366.24,309.6 17.19,75.21 -7.3,144.46 14.26,224.24 41.97,157.41 -148.5,389.3 40.06,498.72 96.91,56.25 218.01,38.01 328.26,18.09 13.4,-2.42 27.39,-5.11 37.94,-13.63 17.42,-14.04 20.35,-40.28 13.74,-61.66 -6.59,-21.37 -20.75,-39.43 -33.16,-58.04 -129.55,-194.81 -98.17,-474.26 -148.52,-696.14 -50.3,-221.43 -169.26,-441.98 -388.62,-532.85 -109.38,70.84 -205.35,148.63 -232.6,276.06l2.4 35.61z"/>
   <path class="fil14" d="M6086.91 3284.47c142.45,-60.93 236.8,-205.94 267.82,-357.71 31.03,-151.78 6.44,-309.77 -35.5,-458.91 -139.55,-496.26 -762.35,-354.12 -907.6,70.25 -126.55,369.85 261.15,923.48 675.28,746.37z"/>
   <path class="fil15" d="M5361.81 3557.46c69.91,-43.46 138.48,-88.96 178.98,-170.14 65.48,-131.21 37.87,-335.08 45.68,-477.41 8.17,-150.04 21.84,-313.52 124.72,-423.04 67.18,-71.53 149.82,-91.17 243.17,-100.68 63.91,-6.5 68.43,17.48 119.61,-21.5 39.22,-29.85 67.94,-111.49 73.6,-158.29 9.55,-78.93 -28.58,-158.04 -84.99,-214.08 -86.77,-86.22 -184.14,-124.39 -303.19,-116.87 -417.83,26.39 -709.76,300.35 -792.57,717.84 -39.78,200.66 20.66,415.13 -23.55,608.76 -27.3,119.55 -95.22,203.42 -114.87,329.91 -50.98,328.25 -193.51,754.61 -151.62,1085.92 1.54,12.27 4.16,25.78 14.07,33.16 20.19,15.03 46.57,-7.63 61.32,-28.03 86,-119.12 172.02,-238.25 258.02,-357.38 33.79,-46.78 67.97,-94.35 87.55,-148.63 48.72,-135.14 3.44,-300.68 87.52,-417.16 45.86,-63.56 111.79,-102.1 176.55,-142.38z"/>
   <path class="fil16" d="M7461.01 10228.27l-2447.69 -260.54c-219.05,-23.31 -377.74,-219.8 -354.41,-438.84l260.55 -2447.7c23.32,-219.04 219.79,-377.72 438.85,-354.41l2447.69 260.55c219.05,23.32 377.73,219.8 354.4,438.84l-260.55 2447.71c-23.31,219.06 -219.79,377.7 -438.84,354.39z"/>
   <polygon class="fil11" points="7441.48,8021.91 5504.39,7815.7 6408.65,8522.66 "/>
   <path class="fil11" d="M5436.44 7848.66l-132.79 1247.44 1815.86 193.29c137.33,14.62 261.34,-92.52 276.96,-239.34l104.5 -981.63 -1100.77 533.7 -963.76 -753.46z"/>
   <path class="fil15" d="M7171.36 8002.35c19.56,-183.84 184.46,-317.01 368.29,-297.45 183.85,19.58 317.02,184.48 297.45,368.32 -19.56,183.83 -184.45,316.99 -368.3,297.45 -183.84,-19.57 -317,-184.47 -297.44,-368.32z"/>
   <polygon class="fil17" points="7462.3,8182.99 7485.73,7962.92 7437.38,7957.74 7444.13,7894.23 7563.18,7906.91 7532.98,8190.51 "/>
   <path class="fil6" d="M8064.62 8325.95l0 0 28.99 -272.32 -28.99 272.32zm95.94 -901.18c0,-0.13 0.01,-0.26 0.03,-0.4l0.01 0 -0.04 0.4zm2.74 -26.95c-0.28,-0.4 -0.55,-0.82 -0.83,-1.2 0.88,-26.69 -0.93,-52.94 -5.18,-78.44l5.53 12.45c2.11,21.98 2.31,44.45 0.48,67.19zm-86.62 -261.21c-30.69,-38.84 -68.54,-71.98 -111.87,-97.27 -0.45,-2.46 -0.89,-4.96 -1.34,-7.42 38.64,20.63 73.08,47.68 102.07,79.57l11.14 25.12z"/>
   <path class="fil18" d="M8160.59 7424.37c0.95,-9.29 1.57,-18.55 1.88,-27.75 0.28,0.38 0.55,0.8 0.83,1.2 -0.26,3.25 -0.57,6.51 -0.91,9.77l-1.79 16.78 -0.01 0zm-195.78 -385.03c-46.53,-27.17 -99.33,-45.31 -156.27,-51.72l16.05 1.7c50.15,5.34 96.97,20.2 138.88,42.6 0.45,2.46 0.89,4.96 1.34,7.42z"/>
   <path class="fil19" d="M8064.62 8325.95l-356.14 -1349.01 100.06 10.68c56.94,6.41 109.74,24.55 156.27,51.72 43.33,25.29 81.18,58.43 111.87,97.27l80.61 181.57c4.25,25.5 6.06,51.75 5.18,78.44 -0.31,9.2 -0.93,18.46 -1.88,27.75 -0.02,0.14 -0.03,0.27 -0.03,0.4l-66.95 628.86 -28.99 272.32z"/>
   <path class="fil10" d="M5080.58 6680.59c-1.78,84.35 90.31,288.19 173.61,324.8 192.26,84.5 94.7,-174.92 81.12,-272.2 35.47,5.56 69.58,12.03 104.72,10.65 32.25,-1.27 -97.1,-275.6 -131.79,-298.37 -83.34,-54.69 -132.99,-15.34 -223.51,5.71 0.41,76.25 -2.47,152.96 -4.15,229.41z"/>
   <polygon class="fil0" points="4938.71,3637.29 4199.65,5391.04 5041.96,6741.59 5231.88,6414.65 4837.21,5162.09 5658.12,4512 5507.48,3502.6 "/>
   <polygon class="fil1" points="15141.73,11976.05 15150.05,12134.93 14827.42,12311.75 14653.48,12161.92 14810.63,11994.14 15133.41,11817.3 "/>
   <polygon class="fil13" points="15409.97,7152.73 14996.13,7629.65 14874.88,9762.11 15156.37,11923.92 14831.43,12004.77 13932.23,9410.13 13916.93,8628.05 14142.83,7019.08 "/>
   <polygon class="fil13" points="12717.83,7404.61 12850.52,9431.05 13450.67,12013.15 13756.33,11991.33 13762.57,9568.78 13994.04,7130.11 "/>
   <polygon class="fil1" points="13764.17,12115.25 13445.88,12297.39 13268.25,12150.61 13421.29,11980.16 13751.81,11956.5 "/>
   <path class="fil0" d="M13275.71 4579.75c-348.6,612.28 -405.52,1368.62 -479.96,2243.39 -59.31,698.55 -48.8,1422.71 105.81,2065.88 680.07,133.04 1549.32,224.69 2242.48,236.6 205.53,-631.08 128.49,-1337.02 224.02,-1992.76 95.21,-655.73 194.9,-1254.62 -25.27,-1882.47 -128.65,-366.66 -316.46,-1350.34 -768.81,-1436.06 -559.2,-105.92 -1062.42,351.22 -1298.27,765.42z"/>
   <path class="fil8" d="M15092.27 9956.02l-2439.45 -328.45c-218.32,-29.4 -371.53,-230.21 -342.13,-448.53l328.43 -2439.52c29.38,-218.31 230.27,-371.46 448.59,-342.06l2439.5 328.46c218.17,29.39 371.46,230.19 342.04,448.51l-328.48 2439.5c-29.27,218.34 -230.18,371.47 -448.5,342.09z"/>
   <path class="fil20" d="M12642.99 9626.14l-8.78 -1.08c-40.42,-5.44 -78.58,-17.07 -113.56,-33.8l6 -2.61c35.76,18.01 74.85,30.86 116.34,37.49z"/>
   <path class="fil21" d="M13038.38 9674.49l-395.39 -48.35c-41.49,-6.63 -80.58,-19.48 -116.34,-37.49l325.73 -144.59c26.59,-11.84 46.39,-33.45 58.1,-60.29l127.9 290.72z"/>
   <polygon class="fil10" points="12634.07,6924.84 12868.59,7202.7 12977.35,7118.06 12853.71,6895.89 12926.17,6882.76 12700.01,6666.89 12573.44,6737.69 "/>
   <polygon class="fil0" points="14202.53,3806.73 13429.53,3971.48 12147.84,5086.66 12515.74,6808.47 12781.51,6678.39 12806.78,5302.08 13628.03,4673.16 "/>
   <path class="fil0" d="M14796.46 3895.45l541.71 246.68c0,0 732.3,832.32 749.7,1140.09 17.42,307.77 -622.59,1300.27 -622.59,1300.27l-232.04 -50.27 293.67 -1238.49 -404.13 -387.89 -326.32 -1010.39z"/>
   <path class="fil14" d="M14465.64 2532.02c-256.73,-88.53 -493.26,2.57 -615.05,246.88 -177.09,355.48 8.64,791.66 276.81,920.79 0.41,41.32 0.79,82.64 1.21,123.98 0,8.45 0.39,17.59 5.44,24.34 4.65,5.96 12.11,8.83 19.15,11.17 74.72,24.65 157.81,22.66 231.2,-5.55 -9.57,-41.69 -14.49,-84.44 -14.63,-127.25 110.38,-29.05 221,-117.57 317.14,-286.43 187.97,-330.66 192.28,-765.32 -221.27,-907.93z"/>
   <path class="fil22" d="M13884.5 3455.81c-224.3,9.58 -248.36,-227.9 -243.57,-398.14 6.92,-240.48 -5.59,-432.63 199.43,-606.71 278.26,-236.45 725.3,-225.3 966.73,61.84 82.58,98.21 114.17,229.57 125.88,357.34 19.71,214.36 -14.95,443.84 -149.45,611.97 -80.74,100.94 -242.05,185.99 -214.32,-3.99 20.5,-140.76 158.39,-239.41 138.66,-393.7 -3.54,-27.52 -13.09,-55.54 -33.43,-74.31 -43.75,-40.21 -116.32,-23.06 -168.24,-51.92 -102.9,-57.12 -125.65,-255.59 -289.84,-189.04 -83.1,33.68 -269.5,227.2 -309.65,307.5 -43.48,86.59 -25.93,190.31 -2,284.22 17.42,68.65 4.93,93.86 -20.2,94.94z"/>
   <path class="fil22" d="M13473.93 4149.11c-10.23,125.02 -10.23,251.64 -37.48,374.11 -21.54,97.02 -59.84,189.75 -80.71,286.93 -34.57,160.54 -19.55,331.36 42.28,483.45 135.88,-233.55 239.18,-486.07 306.06,-747.9 65.02,-254.88 95.47,-517.11 125.65,-778.41 13.02,-112.92 42.4,-602.91 -149.71,-305.64 -129.64,200.63 -186.93,452.33 -206.09,687.46z"/>
   <path class="fil22" d="M14827.73 4541.14c-6.47,-125.29 -23.26,-250.77 -12.63,-375.76 8.63,-99.04 34.36,-196.02 42.06,-295.12 12.94,-163.7 -24.5,-331.04 -106,-473.57 -103.84,249.55 -172.71,513.51 -204.14,781.91 -30.66,261.24 -25.89,525.19 -21.11,788.18 2.16,113.65 37.9,603.21 188.73,283.1 101.85,-216.05 125.42,-473.15 113.09,-708.74z"/>
   <polygon class="fil10" points="15493.47,6654.18 15369.6,6996.1 15238.18,6954.33 15277.31,6703.12 15204.9,6715.87 15342.33,6435.05 15485.46,6457.66 "/>
   <polygon class="fil17" points="8772.25,5845.42 8172.28,8823.58 9461.93,11921.4 9794.3,11921.4 9328.98,9076.2 10162.25,7403.61 "/>
   <polygon class="fil1" points="9481.43,12039.46 9048.34,12311.75 9099.51,12519.56 9888.4,12363.73 9834.19,12041.07 "/>
   <polygon class="fil17" points="10122.69,7095.12 10685.11,11815.05 11030.78,11801.75 11274.61,9237.62 11582.94,6087.31 "/>
   <path class="fil23" d="M9186.88 451.08l231.88 -150.65c0,0 164.81,-113.92 53.32,-134.29 -52.32,-9.53 -117.89,37.86 -129.68,55.87 13.97,-72.77 31.86,-207.32 -27.36,-205.51 -34.87,1.06 -79.95,0.27 -120.02,-0.96l-1.02 -0.86 -175.97 -5.92 -31.83 47.54 -5.56 2.24 0.83 4.82 -58.11 86.79 -13.35 201.89 -80.61 272.26 223.9 76.18 50.17 -201.08 83.41 -48.32z"/>
   <path class="fil23" d="M10563.44 2839.71c-117.11,7.75 -234.24,15.51 -351.33,23.28 -16.49,-92.13 -25.62,-185.59 -27.24,-279.18 -101.65,-17.76 -221.03,-49.93 -254.49,-147.55 -10.54,-30.74 -10.46,-63.97 -10.25,-96.46 0.82,-134.37 1.63,-268.73 2.45,-403.08 0.3,-46.47 0.85,-94.35 18.98,-137.15 31.8,-75.08 110.5,-118.73 187.47,-145.69 196.4,-68.78 424.07,-61.66 602.93,44.69 47.61,28.3 92.41,64.39 119.37,112.78 41.57,74.57 34.91,165.58 27.1,250.63 -7.24,78.48 -14.45,156.97 -21.68,235.46 -8.3,90.27 -24.72,194.04 -102.67,240.35 -41.36,24.58 -94.44,28.26 -130.26,60.42 -63.16,56.68 -36.16,160.15 -60.38,241.5z"/>
   <path class="fil8" d="M11513.79 1342.87c14.44,-35.93 30.6,-70.95 49.62,-104.48 41.22,-72.56 95.99,-138.01 125.9,-215.91 29.92,-77.91 28.59,-176.56 -32.36,-233.57 -39.33,-36.81 -95.29,-49.16 -148.75,-55.66 -176.17,-21.45 -357.99,5.37 -520.44,76.81 -154.76,68.04 -288.03,160.24 -460.82,126.57 -162.33,-31.63 -268.86,10 -419.11,93.6 -162.57,90.45 -392.22,143.64 -534.2,256.79 -59.27,47.22 -101.97,112.72 -132.15,182.28 -104.58,240.9 -55.43,540.88 120.56,735.81 39.49,43.73 84.43,82.24 130.95,118.42 96.28,74.85 212.03,167.84 329.66,181.94 -14.05,-100.81 -158.15,-402.03 -94.77,-497.12 100.58,-150.9 384.7,-151.41 541.8,-144.54 171.35,7.51 338.37,100.15 506.63,97.87 121.07,-1.65 262.13,-84.65 352.36,-162.39 111.35,-96 132.46,-325.3 185.12,-456.42z"/>
   <polygon class="fil24" points="10097.14,2716.5 9065.07,2206.11 9154.94,609.45 8768.13,525.38 8235.36,2444.66 9213.21,3485.54 "/>
   <path class="fil24" d="M11424.48 3730.67c-145.19,-573.27 -59.88,-607.32 -1110.25,-970.4 -339.09,-117.22 -636.33,-86.26 -888.66,89.79l4.27 -6.82c0,0 -81.53,101.82 -207.09,264.18 -0.68,0.99 -1064.52,1450.1 -1429.68,3343.42 119.91,65.64 241.17,129.05 370.14,175.5 0,0 859.58,-190.51 1171.47,-128.37 287.25,57.24 570.52,141.65 843.98,244.59 183.07,67.82 367.24,150.68 519.48,271.45 145.26,115.22 237.99,261.51 385.04,380.17 13.93,11.25 29.3,23.08 47.39,24 96.55,4.98 164.24,-324.67 203.37,-571.27 18.58,-117.17 30.73,-215.61 36.45,-250.5 51.48,-314 83.34,-631.05 103.63,-948.72 18.17,-284.69 26.95,-570.02 32.28,-855.37 4.39,-235.63 -23.43,-831.16 -81.82,-1061.65z"/>
   <path class="fil8" d="M12852.38 9444.06l-3016.22 1338.89c-64.97,28.85 -146.02,-11.7 -181.04,-90.55l-2661.86 -5996.47c-35,-78.87 -10.71,-166.18 54.28,-195.02l3016.17 -1338.89c64.97,-28.85 146.04,11.68 181.06,90.54l2661.86 5996.48c34.96,78.86 10.76,166.16 -54.25,195.02z"/>
   <polygon class="fil17" points="12536.34,8885.49 9627.2,10176.85 7245.7,4811.92 10154.77,3520.58 "/>
   <g style="clip-path:url(#id0)">
    <g>
     <g>
      <polygon id="1" class="fil25" points="5788,5276.35 11504,2761.49 13994.05,8421.08 8278.04,10935.94 "/>
      <path class="fil26" d="M10379.4 9347.63l-2095.84 1290.71c-40.72,25.07 -67.34,63.6 -78.28,105.89l84.01 190.95 2709.83 -1192.24 -407.82 -375.11c-58.03,-53.38 -144.62,-61.63 -211.9,-20.2z"/>
      <path class="fil27" d="M12174.59 4285.67c-18.15,25.15 -34.72,51.51 -49.49,78.8 -14.5,26.82 -27.39,54.91 -38.47,83.99 -40.19,105.4 -57.89,218.07 -59.09,332.75 -1.42,135.44 19.82,272.53 54.33,403.64 47.62,180.98 119.82,358.27 192.02,535.57 31.2,76.6 62.39,153.2 89.8,224.95 50.95,133.29 97.18,270.37 129.33,410.34 32.98,143.64 51.25,290.7 45.02,440.56 -6.67,160.53 -40.17,310.17 -73.71,459.96 -18.46,82.45 -36.93,164.95 -49.75,243.47 -41.73,255.59 -34.62,512.69 3.87,768.95 39.28,261.51 110.55,520.59 196.01,775.68l-233.11 78.39c-90.18,-269.16 -165.31,-542 -206.5,-816.25 -41.98,-279.49 -49.39,-561.99 -3.02,-846.04 14.59,-89.28 33.39,-173.24 52.16,-257.14 31.45,-140.49 62.88,-280.84 68.52,-416.69 5.19,-124.92 -10.69,-250.41 -39.26,-374.79 -29.41,-128.05 -72.12,-254.53 -119.3,-377.98 -29.61,-77.47 -58.74,-149.02 -87.87,-220.54 -75.06,-184.35 -150.12,-368.69 -201.76,-564.9 -40.09,-152.34 -64.78,-311.66 -63.12,-469.13 1.49,-141.83 24.08,-283.01 75.43,-417.72 14.57,-38.22 32,-76.05 52.03,-113.07 19.89,-36.77 42.27,-72.38 66.83,-106.4l199.1 143.6z"/>
      <path class="fil28 str0" d="M7776.03 9723.43c-5.56,2.45 -11.12,4.85 -16.68,7.24"/>
      <path class="fil29" d="M6137.54 6030c22.37,-7.59 45.18,-14.22 68.34,-19.89 22.77,-5.58 45.96,-10.18 69.45,-13.78 47.43,-7.28 95.53,-10.15 143.61,-8.85 47.97,1.3 96.49,6.99 144.8,16.8 93.25,18.95 183.27,53.31 264.98,101.22 80.52,47.19 153.28,107.61 213.49,179.46 34,40.55 62.28,82.1 87.04,122.87 25.31,41.69 45.32,79.31 64.07,114.57 11.58,21.76 22.81,42.87 29.27,54.44 8.82,15.79 17.83,31.06 27.44,45.74 114.34,174.48 346.62,279.63 592.55,390.95l0.07 -0.16 0.16 0.26c291.33,131.86 621.55,281.32 838.84,585.46 117.53,164.49 188.22,361.36 209.73,568.2 21.4,205.74 -5.9,421.65 -84.21,625.47 -70.86,184.41 -172.52,340.09 -285.09,469.83 -147.16,169.63 -312.83,294.69 -452.18,381.52 -43.36,27.02 -87.43,52.39 -131.87,75.93 -45.27,23.97 -90.28,45.82 -134.69,65.36l-0.04 0.01 -54.55 -123.96 0.05 -0.02c43.04,-18.94 85.19,-39.33 126.16,-61.03 41.8,-22.14 83.09,-45.9 123.55,-71.12 130.18,-81.12 284.73,-197.7 421.43,-355.27 103.21,-118.95 196.31,-261.41 261.01,-429.77 70.49,-183.48 95.09,-377.76 75.84,-562.81 -19.14,-183.93 -81.64,-358.48 -185.43,-503.76 -196.38,-274.86 -508.75,-416.29 -784.4,-541.04l-0.08 0.16 -0.14 -0.27c-264.6,-119.76 -514.52,-232.89 -650.11,-439.77 -10.48,-16.01 -21.22,-34.3 -32.24,-54.03 -13.38,-23.96 -22.1,-40.35 -31.03,-57.14 -18.79,-35.33 -38.83,-73.01 -59.92,-107.73 -21.63,-35.64 -46.11,-71.66 -75.05,-106.18 -50.12,-59.8 -110.94,-110.26 -178.43,-149.81 -69.14,-40.53 -144.99,-69.55 -223.28,-85.45 -39.36,-8 -80.03,-12.66 -121.45,-13.79 -39.71,-1.07 -79.67,1.33 -119.31,7.42 -19.13,2.93 -38.39,6.77 -57.71,11.5 -19,4.65 -38.04,10.21 -57.02,16.64l-43.65 -128.18z"/>
      <path class="fil27" d="M7660.17 9505.26c84.38,-36.04 165.95,-79.05 243.64,-127.47 266.81,-166.25 497.24,-404.06 609.86,-697.14 112.62,-293.08 94.15,-643.8 -88.16,-898.97 -342.52,-479.41 -1115.81,-494.1 -1438.76,-986.88 -65.85,-100.49 -108.65,-216.11 -185.84,-308.19 -114.23,-136.29 -302.08,-206.98 -478.23,-179.94 -21.5,3.3 -42.73,8.04 -63.57,14.12l1401.06 3184.47z"/>
      <path class="fil29" d="M5963.96 5638.08c116.59,-41.69 234.29,-80.5 353.73,-113.69 120.29,-33.4 241.91,-61.02 365.33,-79.99 202.43,-31.11 412.44,-37.51 616.4,-9.12 184.75,25.71 364.08,79.91 527.87,170.01 74.55,41 143.6,87.91 212.53,134.72 110.96,75.37 221.64,150.54 342.7,191.47 136.08,46.01 280.12,48.67 425.42,29.64 149.84,-19.64 302.23,-62.49 449.11,-105.4l3145.58 -919.02 37.89 129.57 -3145.58 919.02c-151.93,44.38 -309.86,88.75 -469.27,109.64 -163.96,21.47 -328.13,17.9 -486.6,-35.67 -139.99,-47.33 -257.77,-127.32 -375.83,-207.52 -66.57,-45.21 -133.24,-90.5 -201.47,-128.03 -148.9,-81.9 -312.41,-131.23 -481.17,-154.72 -189.52,-26.38 -386.25,-20.2 -576.99,9.12 -118.25,18.18 -234.58,44.58 -349.49,76.5 -115.75,32.16 -230.52,70.01 -344.58,110.8l-45.58 -127.33z"/>
      <path class="fil26" d="M8103.33 6192.51c-121.52,-51.87 -278.23,-180.25 -406.74,-211.18 -124.45,-29.96 -243.71,17.78 -314.7,137.57 -91.41,154.27 -50.51,352.21 87.58,466.25 161.54,133.42 363.82,191.7 558.24,271.54 439,180.26 813.63,486.09 1082.4,868.42 43.63,62.06 141.47,26.04 134.67,-49.52l-91.91 -1216.32c-8.46,-112.04 -112.74,-191.42 -223.31,-170.15 -271.7,52.25 -579.29,8.79 -826.23,-96.61z"/>
      <polygon class="fil29" points="6892.02,6246.63 7386.16,5481.85 8700.26,4554.53 9577.43,3575.45 9678.05,3665.85 8791.89,4654.96 7486.05,5576.45 7005.85,6319.65 "/>
      <path class="fil28 str0" d="M8766.34 7940.17c149.51,103.14 343.05,140.37 520.5,100.11 7.39,-1.67 14.75,-3.49 22.08,-5.43 244.79,-64.89 405.37,-299.6 387.4,-551.64"/>
      <polygon class="fil29" points="9628.77,7488.37 9512.64,5858.32 8379.08,4183.03 8491.35,4107.63 9645.25,5812.98 9763.88,7478.04 "/>
      <polygon class="fil29" points="9514.43,7921.72 11314.09,9574.89 11222.22,9674.27 9422.55,8021.11 "/>
      <polygon class="fil29" points="13783.73,8121.89 10556.75,9008.45 8138.52,10566.14 8065.41,10452.66 10501.83,8883.24 13747.79,7991.46 "/>
      <polygon class="fil29" points="10304.71,3327.14 11070.42,5399.44 11340.49,7395.98 11674.42,8631.4 11543.49,8667.05 11208.44,7427.48 11206.74,7418.98 10937.93,5431.75 10177.71,3374.34 "/>
      <polygon class="fil29" points="7586.91,6970.27 8067.21,5833.93 8123.74,5857.66 7643.44,6994 "/>
      <path class="fil29" d="M8431.97 7457.97c18.95,-130.67 73.4,-252.1 151.04,-358.42 83.72,-114.66 194.48,-211.78 316.68,-283.92 116.63,-68.85 242.71,-117.53 373.1,-152.6 129.76,-34.9 263.66,-56.32 396.67,-70.8l6.64 61.18c-130.27,14.18 -261.08,35.08 -387.19,69 -125.49,33.76 -246.53,80.41 -358,146.22 -115.28,68.05 -219.62,159.45 -298.26,267.14 -71.9,98.47 -122.28,210.59 -139.72,330.85l-60.96 -8.65z"/>
      <polygon class="fil29" points="7873.55,6428.16 8843.38,6869.73 8817.69,6925.7 7847.87,6484.12 "/>
      <polygon class="fil30" points="8963.35,5396.87 8331.5,5763.46 8176.61,5411.43 8841.13,5119.07 "/>
      <polygon class="fil30" points="8273.37,5167.09 8313.04,5257.26 8806.42,5040.18 8724.61,4854.23 "/>
      <polygon class="fil30" points="8144.69,5556.63 7956.85,5639.27 7865.74,5432.19 8036.92,5311.67 "/>
      <path class="fil26" d="M9240.56 5611.25c-28.11,-42.26 -72.34,-81 -123.05,-77 -31.1,2.46 -58.48,20.56 -84.29,38.1 -39.84,27.06 -79.7,54.13 -119.55,81.21 -33.25,22.58 -67.44,46.11 -89.01,79.99 -21.58,33.87 -27.35,81.16 -2.83,112.89 18.24,23.6 49.59,34.09 79.48,34.17 29.89,0.07 59,-8.85 87.57,-17.69 91.55,-28.32 183.12,-56.65 274.67,-84.98l25.52 -7.68c11.65,-10.73 23.3,-21.44 34.95,-32.17 -35.98,-35.8 -55.34,-84.59 -83.46,-126.84z"/>
      <path class="fil29" d="M8633.85 6002.85c-21.2,-53.53 -27.16,-112.31 -18.96,-168.89 8.22,-56.66 30.61,-111.42 66.09,-156.78 18.89,-24.14 40.74,-45.22 64.11,-64.44 22.29,-18.34 46.47,-35.26 70.83,-51.67 67.13,-45.24 135.79,-86.96 205.67,-125 69.81,-38 142.09,-73.01 216.51,-104.83l24.25 56.32c-71.39,30.53 -141.98,64.79 -211.43,102.6 -69.39,37.77 -136.42,78.43 -200.77,121.79 -22.39,15.08 -44.76,30.77 -66,48.24 -20.16,16.58 -38.85,34.55 -54.67,54.77 -28.74,36.75 -46.91,81.33 -53.63,127.64 -6.72,46.4 -1.97,94.27 15.14,137.47l-57.14 22.78z"/>
      <polygon class="fil30" points="8371.84,4563.3 7457.6,4965.54 7313.8,4638.71 8228.05,4236.47 "/>
      <polygon class="fil30" points="7075.72,5009.12 6834.54,5115.24 6736.61,4892.66 6977.8,4786.55 "/>
      <polygon class="fil30" points="6731.12,5160.75 6489.93,5266.86 6392,5044.28 6633.19,4938.17 "/>
      <polygon class="fil30" points="6386.5,5312.36 6145.32,5418.48 6047.39,5195.9 6288.58,5089.79 "/>
      <path class="fil29" d="M6937.32 5443.95c58.05,-54.24 117.56,-111.01 166.19,-173.13 47.27,-60.38 84.37,-126.03 99.67,-199.74 7.99,-38.5 9.64,-77.87 6.51,-117.05 -3.55,-44.31 -13.24,-88.74 -26.88,-131.68 -5.88,-18.51 -12.33,-36.48 -19.23,-54 -7.16,-18.2 -14.74,-35.95 -22.62,-53.32l56.08 -25.21c8.46,18.69 16.46,37.37 23.79,55.98 7.58,19.28 14.53,38.57 20.64,57.82 14.87,46.8 25.47,95.73 29.44,145.27 3.61,45.02 1.69,90.28 -7.49,134.57 -17.5,84.3 -58.89,158.05 -111.41,225.14 -51.16,65.36 -112.77,124.15 -172.8,180.25l-41.89 -44.9z"/>
      <path class="fil26" d="M7386.58 5311.54c-21.44,9.44 -31.21,34.44 -21.79,55.84 9.41,21.39 34.44,31.08 55.88,21.64 21.45,-9.43 31.21,-34.44 21.8,-55.82 -9.41,-21.4 -34.44,-31.1 -55.89,-21.66z"/>
      <path class="fil26" d="M7556.58 5190.51c-21.45,9.43 -31.21,34.43 -21.8,55.82 9.42,21.4 34.44,31.1 55.89,21.66 21.45,-9.44 31.21,-34.43 21.79,-55.83 -9.41,-21.4 -34.43,-31.09 -55.88,-21.65z"/>
      <path class="fil26" d="M8477.56 4516.79c-21.45,9.44 -31.22,34.43 -21.8,55.83 9.41,21.4 34.43,31.08 55.88,21.64 21.45,-9.43 31.22,-34.42 21.8,-55.82 -9.41,-21.4 -34.43,-31.08 -55.88,-21.65z"/>
      <path class="fil26" d="M6903 5292.27c-21.45,9.43 -31.21,34.43 -21.79,55.83 9.41,21.39 34.43,31.09 55.88,21.65 21.45,-9.44 31.21,-34.44 21.79,-55.83 -9.41,-21.39 -34.43,-31.09 -55.88,-21.65z"/>
      <path class="fil26" d="M5898.5 5300.36c-21.46,9.44 -31.21,34.43 -21.8,55.82 9.42,21.4 34.44,31.09 55.88,21.66 21.45,-9.44 31.21,-34.43 21.8,-55.83 -9.42,-21.39 -34.43,-31.09 -55.88,-21.65z"/>
      <path class="fil26" d="M6896.21 5989.47c-21.45,9.44 -31.21,34.44 -21.8,55.83 9.41,21.4 34.43,31.09 55.89,21.66 21.44,-9.44 31.2,-34.44 21.79,-55.83 -9.41,-21.4 -34.44,-31.09 -55.88,-21.66z"/>
      <path class="fil26" d="M7336.75 5944.79c-21.44,9.44 -31.2,34.44 -21.8,55.83 9.42,21.4 34.44,31.09 55.89,21.66 21.46,-9.45 31.21,-34.44 21.79,-55.83 -9.4,-21.39 -34.43,-31.09 -55.88,-21.66z"/>
      <path class="fil26" d="M8975.61 4578.83c-21.45,9.44 -31.21,34.44 -21.8,55.83 9.42,21.4 34.44,31.09 55.89,21.65 21.45,-9.43 31.21,-34.43 21.79,-55.82 -9.41,-21.4 -34.43,-31.09 -55.88,-21.66z"/>
      <path class="fil26" d="M10191.69 4877.29c-21.46,9.44 -31.22,34.43 -21.8,55.83 9.41,21.4 34.43,31.09 55.88,21.65 21.45,-9.44 31.21,-34.43 21.8,-55.83 -9.42,-21.39 -34.44,-31.08 -55.88,-21.65z"/>
      <path class="fil26" d="M10443.33 4766.58c-21.46,9.44 -31.22,34.43 -21.81,55.83 9.41,21.39 34.44,31.08 55.9,21.65 21.44,-9.44 31.2,-34.44 21.78,-55.83 -9.41,-21.4 -34.43,-31.08 -55.87,-21.65z"/>
      <path class="fil26" d="M10123.31 5820.21c-21.46,9.44 -31.22,34.44 -21.8,55.83 9.41,21.4 34.43,31.09 55.88,21.65 21.45,-9.44 31.21,-34.43 21.8,-55.82 -9.42,-21.4 -34.44,-31.09 -55.88,-21.66z"/>
      <path class="fil26" d="M12071.61 6262.93c-21.45,9.43 -31.21,34.42 -21.8,55.82 9.41,21.4 34.44,31.09 55.89,21.65 21.45,-9.44 31.21,-34.43 21.79,-55.83 -9.41,-21.4 -34.43,-31.09 -55.88,-21.64z"/>
      <path class="fil26" d="M12174.35 4808.69c-21.45,9.44 -31.21,34.44 -21.79,55.83 9.41,21.4 34.44,31.09 55.88,21.65 21.46,-9.43 31.21,-34.43 21.8,-55.83 -9.41,-21.39 -34.43,-31.08 -55.89,-21.65z"/>
      <path class="fil26" d="M10595.49 3764.2c-21.45,9.43 -31.21,34.43 -21.8,55.83 9.41,21.39 34.44,31.09 55.89,21.65 21.45,-9.44 31.2,-34.44 21.79,-55.82 -9.42,-21.4 -34.43,-31.11 -55.88,-21.66z"/>
      <path class="fil26" d="M10875.16 4083.76c-21.45,9.43 -31.21,34.43 -21.8,55.83 9.41,21.39 34.44,31.08 55.89,21.65 21.44,-9.44 31.2,-34.44 21.79,-55.83 -9.41,-21.4 -34.43,-31.09 -55.88,-21.65z"/>
      <path class="fil26" d="M11657.59 3739.51c-21.45,9.44 -31.2,34.44 -21.79,55.83 9.41,21.39 34.43,31.09 55.88,21.65 21.46,-9.44 31.21,-34.43 21.8,-55.83 -9.42,-21.39 -34.44,-31.09 -55.89,-21.65z"/>
      <path class="fil26" d="M11688.59 4222.74c-21.45,9.43 -31.21,34.43 -21.8,55.83 9.41,21.39 34.44,31.09 55.89,21.66 21.45,-9.45 31.21,-34.44 21.8,-55.84 -9.42,-21.39 -34.44,-31.09 -55.89,-21.65z"/>
      <path class="fil26" d="M12796.83 6118.15c-21.44,9.44 -31.2,34.44 -21.79,55.84 9.41,21.39 34.44,31.08 55.89,21.64 21.45,-9.43 31.21,-34.43 21.8,-55.82 -9.42,-21.4 -34.44,-31.09 -55.9,-21.66z"/>
      <path class="fil26" d="M8148.57 5670.8c-21.45,9.44 -31.21,34.43 -21.79,55.83 9.41,21.39 34.42,31.09 55.87,21.65 21.45,-9.43 31.21,-34.43 21.8,-55.83 -9.42,-21.39 -34.43,-31.09 -55.88,-21.65z"/>
      <path class="fil26" d="M8441.93 5810.75c-21.45,9.44 -31.21,34.44 -21.79,55.84 9.41,21.39 34.42,31.08 55.87,21.64 21.46,-9.44 31.21,-34.43 21.8,-55.82 -9.41,-21.4 -34.43,-31.09 -55.88,-21.66z"/>
      <path class="fil26" d="M9099.63 6106.52c-21.45,9.44 -31.21,34.43 -21.8,55.83 9.42,21.39 34.44,31.09 55.89,21.65 21.45,-9.44 31.21,-34.43 21.8,-55.83 -9.42,-21.4 -34.44,-31.09 -55.89,-21.65z"/>
      <path class="fil26" d="M8934.88 7753.67c-21.45,9.43 -31.21,34.43 -21.8,55.82 9.42,21.4 34.44,31.1 55.89,21.66 21.45,-9.44 31.21,-34.43 21.79,-55.83 -9.41,-21.4 -34.43,-31.09 -55.88,-21.65z"/>
      <path class="fil26" d="M10594.23 8717.18c-21.44,9.44 -31.21,34.44 -21.79,55.83 9.41,21.4 34.43,31.09 55.88,21.65 21.46,-9.43 31.21,-34.43 21.8,-55.83 -9.41,-21.39 -34.43,-31.08 -55.89,-21.65z"/>
      <path class="fil26" d="M9317.47 9432.77c-21.45,9.44 -31.2,34.43 -21.79,55.83 9.41,21.39 34.43,31.09 55.88,21.66 21.45,-9.45 31.2,-34.44 21.79,-55.84 -9.41,-21.39 -34.43,-31.09 -55.88,-21.65z"/>
      <path class="fil26" d="M8911.76 9698.4c-21.45,9.44 -31.21,34.43 -21.79,55.83 9.41,21.39 34.43,31.08 55.88,21.65 21.45,-9.44 31.21,-34.43 21.8,-55.83 -9.42,-21.39 -34.44,-31.09 -55.89,-21.65z"/>
      <path class="fil26" d="M8150.98 10214.46c-21.46,9.44 -31.21,34.43 -21.8,55.83 9.42,21.4 34.43,31.09 55.88,21.65 21.45,-9.44 31.21,-34.43 21.8,-55.83 -9.42,-21.39 -34.44,-31.08 -55.88,-21.65z"/>
      <path class="fil26" d="M11382.44 8518.9c-21.45,9.44 -31.21,34.43 -21.8,55.82 9.42,21.41 34.44,31.09 55.89,21.66 21.45,-9.44 31.2,-34.43 21.79,-55.83 -9.41,-21.39 -34.43,-31.09 -55.88,-21.65z"/>
      <path class="fil26" d="M12103.58 8645.51c-21.45,9.44 -31.21,34.44 -21.8,55.83 9.42,21.4 34.43,31.09 55.89,21.66 21.45,-9.44 31.21,-34.44 21.79,-55.83 -9.41,-21.4 -34.44,-31.1 -55.88,-21.66z"/>
      <path class="fil26" d="M12581.66 8155.49c-21.45,9.44 -31.21,34.43 -21.8,55.83 9.42,21.39 34.44,31.09 55.89,21.65 21.45,-9.44 31.2,-34.43 21.79,-55.83 -9.41,-21.39 -34.43,-31.09 -55.88,-21.65z"/>
      <path class="fil26" d="M13351.47 8364.94c-21.45,9.43 -31.2,34.44 -21.8,55.83 9.41,21.39 34.44,31.09 55.9,21.65 21.44,-9.44 31.19,-34.44 21.78,-55.83 -9.4,-21.39 -34.43,-31.09 -55.88,-21.65z"/>
      <path class="fil26" d="M11578.63 9324.04c-21.46,9.44 -31.21,34.43 -21.8,55.83 9.41,21.39 34.43,31.09 55.89,21.65 21.44,-9.44 31.2,-34.44 21.79,-55.83 -9.42,-21.39 -34.44,-31.09 -55.88,-21.65z"/>
      <path class="fil26" d="M9014.07 8219.29c-21.45,9.43 -31.21,34.44 -21.8,55.83 9.42,21.4 34.44,31.09 55.89,21.66 21.45,-9.44 31.21,-34.44 21.8,-55.84 -9.42,-21.39 -34.44,-31.09 -55.89,-21.65z"/>
      <path class="fil26" d="M12872.01 6838.38c-21.46,9.43 -31.21,34.43 -21.8,55.82 9.42,21.4 34.44,31.1 55.88,21.66 21.46,-9.44 31.21,-34.43 21.8,-55.83 -9.42,-21.4 -34.43,-31.09 -55.88,-21.65z"/>
      <path class="fil26" d="M13160 6943.57c-21.46,9.44 -31.21,34.43 -21.8,55.83 9.42,21.4 34.44,31.09 55.89,21.65 21.44,-9.44 31.21,-34.43 21.79,-55.83 -9.41,-21.39 -34.43,-31.09 -55.88,-21.65z"/>
      <path class="fil26" d="M11033.33 7107.97c-21.45,9.43 -31.21,34.43 -21.8,55.82 9.41,21.4 34.44,31.1 55.89,21.66 21.44,-9.44 31.21,-34.44 21.79,-55.83 -9.41,-21.4 -34.43,-31.09 -55.88,-21.65z"/>
      <path class="fil26" d="M10054.62 8177.33c-21.46,9.44 -31.22,34.43 -21.81,55.83 9.42,21.4 34.44,31.1 55.89,21.65 21.44,-9.43 31.21,-34.43 21.79,-55.82 -9.41,-21.4 -34.43,-31.09 -55.87,-21.66z"/>
      <path class="fil26" d="M10640.93 7044.25c-21.45,9.44 -31.22,34.43 -21.81,55.83 9.42,21.39 34.44,31.08 55.9,21.64 21.45,-9.43 31.2,-34.42 21.78,-55.82 -9.41,-21.39 -34.42,-31.08 -55.87,-21.65z"/>
      <path class="fil26" d="M11029.16 6853.27c-21.46,9.43 -31.21,34.43 -21.8,55.83 9.41,21.39 34.43,31.09 55.88,21.65 21.46,-9.44 31.21,-34.44 21.8,-55.83 -9.41,-21.39 -34.44,-31.09 -55.88,-21.65z"/>
      <path class="fil26" d="M9811.43 6381.87c-21.45,9.44 -31.21,34.44 -21.79,55.84 9.41,21.38 34.43,31.08 55.88,21.65 21.45,-9.45 31.21,-34.44 21.8,-55.83 -9.41,-21.4 -34.44,-31.1 -55.89,-21.66z"/>
      <path class="fil26" d="M9216 7848.57c-21.44,9.43 -31.21,34.42 -21.79,55.82 9.41,21.4 34.44,31.09 55.88,21.65 21.45,-9.43 31.22,-34.43 21.8,-55.82 -9.41,-21.4 -34.43,-31.09 -55.89,-21.65z"/>
      <polygon class="fil30" points="7397.98,5853.73 7503.58,5905.81 7593.86,5723.92 7488.27,5671.83 "/>
      <polygon class="fil29" points="9250.65,5323.71 10614.77,4383.66 10649.67,4434.24 9285.55,5374.29 "/>
      <path class="fil29" d="M10374.26 3633.19c84.07,-42.86 176.31,-68.49 269.72,-76.33 93.42,-7.82 188.64,2.15 278.69,30.48 116.64,36.71 216.45,99.71 316.46,162.85 72.91,46.03 145.95,92.14 223,125.24 72.95,31.34 150.7,51.21 230.55,62.09 90.57,12.33 182.96,13.07 273.69,5.76l0.01 0.09 6.14 -0.51 -0.01 -0.17 6.73 -0.59 11.75 134.71 -6.73 0.59 -0.35 -0.13 -6.73 0.55 -0.25 0.11c-100.84,8.13 -203.14,7.37 -302.86,-6.22 -90.86,-12.38 -180.34,-35.42 -265.65,-72.08 -86.05,-36.96 -164.06,-86.21 -241.96,-135.39 -92.52,-58.4 -184.85,-116.7 -284.46,-148.04 -72.63,-22.85 -150.13,-30.84 -226.75,-24.41 -76.63,6.42 -151.83,27.21 -219.86,61.89l-61.13 -120.49z"/>
      <polygon class="fil29" points="9641.61,6919.29 11268.06,7338.25 13095.87,6534.07 13150.41,6658.04 11279.75,7481.07 9607.73,7050.37 "/>
      <path class="fil26" d="M11969.33 7328.16l-419.27 184.3c-27.8,12.23 -42.54,42.89 -34.68,72.14l206.8 769.56c8.84,32.93 42.91,52.28 75.82,43.08l191.08 -53.45c30,-8.38 49.09,-37.85 44.18,-68.54 -46.33,-289.69 -40.7,-590.69 20.7,-877.96 10.48,-49.05 -38.63,-89.35 -84.63,-69.13z"/>
      <path class="fil26" d="M10407.05 3277.78l38.76 111.23c11.62,33.39 47.43,52.14 81.41,42.05 178.26,-52.87 380.7,-7.96 552.08,68.79 60.14,26.95 121.39,61.04 187.22,56.45 60.62,-4.22 113.61,-40.67 163.18,-75.85l245.9 -174.49 -216.12 -491.21 -1052.43 463.03z"/>
      <path class="fil29" d="M8451.85 9236.81c143.6,103.52 299.6,189.99 463.54,257.57 163.86,67.55 335.6,116.17 510.73,144.02l-9.64 60.72c-179.89,-28.6 -356.27,-78.53 -524.56,-147.91 -168.22,-69.35 -328.46,-158.2 -476.12,-264.65l36.05 -49.75z"/>
      <polygon class="fil29" points="9643.32,6593.8 11073.36,5997 11097.18,6053.52 9667.13,6650.32 "/>
      <path class="fil29" d="M13196.45 6728.57c-65.42,78.78 -116.62,169.72 -150.05,266.64 -32.53,94.35 -48.11,194.24 -43.4,293.93 6.73,142.53 50.8,281.13 94.74,419.31 12.05,37.9 24.09,75.78 34.09,109.2 45.42,151.85 79.64,307.41 102.49,464.97 22.85,157.64 34.19,316.73 33.84,475.55l-61.62 0.04c0.36,-156.35 -10.74,-312.47 -33.1,-466.68 -22.3,-153.88 -55.93,-306.45 -100.67,-456.04 -11.7,-39.14 -22.7,-73.72 -33.7,-108.31 -45.21,-142.16 -90.54,-284.74 -97.63,-434.88 -5.09,-107.62 11.68,-215.32 46.71,-316.91 35.78,-103.73 90.74,-201.26 161.06,-285.94l47.24 39.12z"/>
      <polygon class="fil30" points="10112.53,5515.85 10771.08,5311.15 10613.13,4901.73 9967.35,5185.86 "/>
      <polygon class="fil30" points="9985.23,5548.32 9719.7,5665.14 9549.88,5279.15 9815.4,5162.34 "/>
      <polygon class="fil30" points="9338.22,4204.03 9103.52,4465.39 9412.67,5020.93 9622.85,4850.95 "/>
      <polygon class="fil30" points="9530.94,4159.62 9829.66,4838.57 10387.02,4387.8 10077.46,3551.03 "/>
      <polygon class="fil30" points="7097.46,5774.14 6926.1,5849.53 6850.89,5678.61 7022.26,5603.21 "/>
      <polygon class="fil30" points="6772.32,5832.06 6600.95,5907.45 6525.75,5736.52 6697.11,5661.12 "/>
      <polygon class="fil30" points="6447.54,5872.94 6276.17,5948.34 6200.97,5777.42 6372.33,5702.01 "/>
      <polygon class="fil30" points="12561.5,6024.51 12821.37,5910.17 12499.08,5177.64 12239.21,5291.98 "/>
      <polygon class="fil30" points="13026.32,6375.99 12645.92,6543.36 12573.2,6378.06 12953.6,6210.71 "/>
      <polygon class="fil30" points="11626.16,6395.68 11487.33,6080.13 11349.48,6140.78 11503.64,7104.21 12162.73,6814.23 11921.43,6265.77 "/>
      <polygon class="fil30" points="11252.87,5560.04 11303.27,5913.15 11856.91,5669.57 11739.16,5401.94 "/>
      <polygon class="fil30" points="12032.6,6068.9 11755.79,6190.69 11634.31,5914.58 11911.12,5792.79 "/>
      <path class="fil26" d="M8587.57 4078.3l135.38 202.57c14.96,22.39 47.12,24.53 65.01,4.33l384.61 -434.21c9.41,-10.63 12.03,-23.07 9.86,-34.41l-594.86 261.72z"/>
      <polygon class="fil30" points="10168.59,7299.02 9886.48,7224.31 9876.93,7773.49 10170.26,7883.25 "/>
      <polygon class="fil30" points="10720.42,7445.17 10267.37,7325.18 10269.07,7920.22 10722.26,8089.8 "/>
      <polygon class="fil30" points="10819.19,7471.33 10821.08,8126.77 11291.5,8302.8 11103.82,7546.71 "/>
      <polygon class="fil30" points="11082.02,9068.06 11331.92,9367.85 11726.02,9194.46 11574.99,8851.18 "/>
      <polygon class="fil30" points="12128.26,9131.82 11934.33,9217.14 11756.03,8811.88 11949.95,8726.55 "/>
      <polygon class="fil30" points="10877.5,5946.71 10039.51,6315.4 9927.94,6061.83 10765.94,5693.14 "/>
      <polygon class="fil30" points="9938.46,5947.79 9776.52,6019.03 9744.29,5945.78 9906.23,5874.53 "/>
      <polygon class="fil30" points="10495.02,6415.83 10424.46,6446.87 10594.69,6833.8 10972.21,6667.71 10918.72,6229.41 "/>
      <polygon class="fil30" points="9927.79,6618.31 9962.5,6697.21 10201.65,6591.98 10166.95,6513.09 "/>
      <polygon class="fil30" points="9983.89,6745.83 10018.6,6824.72 10257.76,6719.5 10223.06,6640.61 "/>
      <polygon class="fil30" points="10040,6873.35 10074.71,6952.24 10313.86,6847.01 10279.15,6768.13 "/>
      <line class="fil28 str1" x1="10218.71" y1="7137.85" x2="11167.65" y2= "6720.34" />
      <path class="fil26" d="M9739.85 8619.11l59.69 510.1c3.38,28.9 35.76,44.37 60.49,28.91l336.94 -210.83c23.59,-14.77 25.11,-48.5 2.95,-65.23l-396.64 -299.26c-27.88,-21.04 -67.49,1.62 -63.43,36.31z"/>
      <polygon class="fil29" points="11254.31,3793.09 11746.67,3479.19 11779.69,3530.88 11287.33,3844.77 "/>
      <polygon class="fil30" points="11512.36,4484.79 11390.35,4151.91 10821.51,4383.27 10953.16,4730.82 "/>
      <polygon class="fil30" points="10989.69,4825.46 11120.53,5170.85 11698.26,4989.69 11548.02,4579.81 "/>
      <polygon class="fil30" points="12826.67,7168.48 12796.19,7025.39 12561.75,7128.53 12550.21,7290.11 "/>
      <polygon class="fil30" points="12888.87,7460.58 12845.61,7257.41 12543.05,7390.53 12526.67,7619.93 "/>
      <polygon class="fil30" points="12519.5,7720.35 12493.1,8090.24 12989.14,7931.38 12907.82,7549.51 "/>
      <polygon class="fil30" points="13294.22,7634 13533.48,7528.73 13321.91,7047.85 13082.64,7153.12 "/>
      <polygon class="fil30" points="13660.27,7816.89 13321.7,7965.85 13256.71,7818.14 13595.28,7669.18 "/>
      <polygon class="fil29" points="9444.41,9667.72 10343.66,10007.42 10321.78,10064.86 9422.54,9725.16 "/>
      <polygon class="fil29" points="8746.19,10150.47 8908.18,10666.57 8849.41,10685.07 8687.42,10168.96 "/>
      <polygon class="fil29" points="9654.05,7742 11221.57,8709.35 11189.27,8761.65 9621.75,7794.31 "/>
      <polygon class="fil30" points="13090.72,8668.02 12731.99,8825.85 12639.11,8614.76 12997.85,8456.93 "/>
      <polygon class="fil30" points="13452.8,8333.85 13490.28,8646.9 13832.71,8496.26 13716.56,8266.7 "/>
      <polygon class="fil30" points="8798.89,9845.61 8043.75,10177.85 7907.39,9867.93 8662.52,9535.69 "/>
      <polygon class="fil30" points="8984.56,8512.95 8847.28,9252.11 9369.95,9270.59 9344.33,8500.38 "/>
      <line class="fil28 str2" x1="9683.04" y1="10321.98" x2="9297.12" y2= "6093.85" />
      <path class="fil28 str2" d="M9297.12 6093.85c-66.04,-723.58 274.08,-1425.09 883.92,-1823.09"/>
      <polygon class="fil31" points="10140.9,4208.97 11631.84,3235.95 11712.12,3359.52 10221.18,4332.54 "/>
      <polygon class="fil31" points="10053.61,10132.14 9564.14,3621.83 9711.53,3610.58 10201,10120.88 "/>
      <polygon class="fil31" points="11540.72,2967.8 9103.33,4589.91 9021.45,4467.04 11458.85,2844.92 "/>
      <path class="fil28 str2" d="M9062.39 4528.47c-775.66,516.21 -1690.34,783.88 -2621.58,767.17"/>
      <line class="fil28 str2" x1="6440.81" y1="5295.64" x2="5844.99" y2= "5284.95" />
      <polygon class="fil30" points="10368.36,8583.99 10489.62,8684.75 10667.56,8534.72 10520.81,8437.23 "/>
      <polygon class="fil30" points="10468.28,8402.34 10286.45,8281.54 10155.82,8407.37 10320.71,8544.38 "/>
     </g>
    </g>
   </g>
   <polygon class="fil32" points="12536.34,8885.49 9627.2,10176.85 7245.7,4811.92 10154.77,3520.58 "/>
   <polygon class="fil17" points="11493.56,9766.8 10881.87,10038.32 10838.56,9940.76 11450.25,9669.23 "/>
   <polygon class="fil14" points="11226.96,5852.26 11129.68,6038.29 10952.17,6090.83 10944.19,6134.09 10997.07,6146.06 10862.21,6231.86 10822.34,6355.29 10925.1,6493.97 11096.95,6541.7 11223.83,6425.05 11285.04,6229.44 11429.24,5980.56 "/>
   <path class="fil24" d="M11509.41 3492.15c-86.22,-113.93 -199.43,-265.91 -338.63,-359.35 0,0 -1.23,1.54 -3.44,4.5l-2.44 -2.62 -0.7 6.93c-45.14,62.57 -303.51,456 -104.52,1016.73 3.5,0.41 6.75,0.72 10.19,1.12l596.82 676.57 -541.42 1021.16 334.46 193.08 887.29 -1150.05c-265.9,-557.17 -496.77,-957.74 -837.61,-1408.07z"/>
   <polygon class="fil1" points="10691.52,11919.81 11052.1,11905.85 11332.62,12400.97 11245.95,12587.23 10780.77,12364.54 "/>
   <path class="fil33" d="M15393.78 7748.7c-80.24,14.53 -164.51,14.44 -245.55,7.99 38.47,3.05 109.64,-50.11 138.18,-71.71 43.53,-32.91 82.91,-72.97 111.15,-119.82 2.96,-3.46 5.73,-8.08 2.53,-12.07 -4.49,-3.21 -7.96,-3.02 -12.4,-2.03 -98.49,24.76 -196.74,36 -298.29,35.91 -8.44,-0.01 -13.8,-3.46 -17.54,-9.67 -5.67,-10.94 -11.01,-21.2 -17.69,-30.31 -31.6,-44.22 -67.97,-81.85 -111.61,-113.82 -57.27,-42.03 -124.21,-70.53 -194.07,-83.26 -67.93,-12.45 -138.32,-10.04 -205.44,6.09 -67.24,16.12 -131.13,46.03 -186.47,87.61 -57.21,42.94 -105.41,98.55 -138.84,161.92 -32.27,61.17 -47.12,125.97 -53.92,194.25 -1.26,11.3 -2.6,12.52 -12.12,8.57 -359.9,-149.38 -636.28,-360.85 -815.96,-710.6 -7.8,-15.18 -13.74,-16.67 -26.03,-5.5 -151.45,137.4 -164.53,415.92 -59.66,580.67 13.97,21.96 28.46,44.04 44.8,64.99 -7.8,-0.36 -96.83,-33.22 -167.81,-95.83 -9.18,-9.66 -15.65,-7.03 -19.71,5.08 -5.51,17.6 -8.09,34.37 -10.5,54.32 -20.81,172.58 56.24,356.32 199.76,456.45 16.84,12.66 35.91,24.81 55.35,33.39 -38.12,-1.15 -76.77,-4.8 -178.4,-38.91 -12.27,-5.72 -18.81,-0.53 -16.99,13.11 24.66,231.82 176.96,337.16 293.83,404.73 16.14,7.16 33,11.38 48.9,19.58 -1.38,1.26 -2.4,1 -3.73,2.23 -57.74,53.22 -214.42,64.31 -287.76,70.96 -133.36,12.1 -271.72,-2.09 -398.14,-47.36 -19.98,-8.23 -24.4,-9.09 -30.71,-7.7 -6.57,2.06 -2.83,8.27 2.46,15.35 21.94,23.96 44.85,46.06 68.4,67.77 71.38,64.26 148.47,120.53 232.02,167.79 431.32,244.17 976.92,281 1411.54,22.56 341.32,-203.02 530.98,-553.39 624.96,-928.23 3.68,-14.7 23.03,-18.44 35.27,-23.62 84.49,-35.58 157.02,-85.34 227.95,-143.44 15.95,-13.03 18.8,-27.51 20.26,-33.34 0.25,-1 0.49,-1.96 0.49,-1.96 1.51,-6.02 1.78,-4 -8.51,-2.14z"/>
   <path class="fil34" d="M3353.9 6577.57c-55.75,30.03 -76.59,99.54 -46.58,155.25 30.03,55.73 99.54,76.57 155.29,46.54 55.7,-30 76.54,-99.52 46.52,-155.26 -30.01,-55.7 -99.54,-76.54 -155.23,-46.53zm-877.67 285.2c-195.81,105.49 -269.28,350.58 -163.79,546.39l370.23 687.23c105.49,195.81 350.57,269.28 546.38,163.79l687.2 -370.21c195.81,-105.49 269.32,-350.6 163.83,-546.4l-370.23 -687.24c-105.49,-195.81 -350.62,-269.26 -546.42,-163.77l-687.2 370.21zm1527.26 1189.13l-687.2 370.22c-285.07,153.57 -641.96,46.61 -795.55,-238.49l-370.24 -687.24c-153.59,-285.09 -46.58,-641.98 238.49,-795.55l687.2 -370.22c285.1,-153.59 641.99,-46.62 795.58,238.48l370.23 687.23c153.59,285.1 46.6,641.98 -238.51,795.57zm-653.9 -407.82c-149.72,80.66 -337.15,24.48 -417.81,-125.24 -80.65,-149.72 -24.47,-337.14 125.26,-417.8 149.76,-80.68 337.14,-24.48 417.8,125.24 80.66,149.72 24.51,337.12 -125.25,417.8zm-374.65 -695.43c-233.73,125.92 -321.42,418.52 -195.5,652.26 125.92,233.73 418.51,321.48 652.25,195.56 233.73,-125.92 321.44,-418.55 195.53,-652.28 -125.92,-233.74 -418.55,-321.46 -652.28,-195.54z"/>
   <path class="fil35" d="M17025.55 7094.89l0 954.53c0,13.71 11.15,24.87 24.87,24.87l354.5 0c13.71,0 24.83,-11.16 24.83,-24.87l0 -970.07 257 0c12.9,0 23.66,-9.92 24.75,-22.77l24.71 -292.28c1.24,-14.5 -10.18,-26.98 -24.75,-26.98l-281.71 0 0 -207.34c0,-48.61 39.4,-88.01 88,-88.01l198.06 0c13.75,0 24.87,-11.15 24.87,-24.87l0 -292.28c0,-13.71 -11.12,-24.87 -24.87,-24.87l-334.64 0c-196.38,0 -355.62,159.2 -355.62,355.58l0 281.79 -177.22 0c-13.73,0 -24.87,11.16 -24.87,24.87l0 292.29c0,13.75 11.14,24.87 24.87,24.87l177.22 0 0 15.54z"/>
   <g>
    <path class="fil36" d="M9927.87 5806.43l101.7 -311.69c6.37,-23.49 11.58,-42.51 17.91,-65.17 51.48,-184.43 90.99,-478.62 59.84,-686.91 -34.86,-233.13 -171,-407.25 -345.03,-482.73 -181.78,-78.85 -375.75,-84.55 -567.61,6.48 -232.33,110.22 -378.63,337.93 -383.12,575.59l-324.63 156.16c-57.02,27.43 -81.23,96.53 -53.8,153.55l0 0c27.43,57.03 96.53,81.24 153.55,53.81l268.62 -129.22 15.01 -7.21c57.02,-27.44 126.12,-3.22 153.55,53.8l0 0c25.65,53.31 6.15,117.18 -43.09,147.68l0.46 0.5 -508.2 244.47c-57.02,27.43 -81.23,96.53 -53.8,153.55l0 0c27.43,57.03 96.53,81.24 153.56,53.81l595.4 -286.42 48.98 -23.56 70.95 -34.13c57.03,-27.43 126.13,-3.22 153.56,53.8l0 0c25.77,53.57 5.96,117.79 -43.8,148.12l0.61 0.33 -425.48 204.68c-57.02,27.43 -81.23,96.53 -53.8,153.55l0 0c27.43,57.03 96.53,81.24 153.55,53.81l592.5 -285.02c4.3,1.93 8.6,3.9 12.91,5.91l249.7 92.46z"/>
    <circle class="fil37" transform="matrix(0.0693749 -0.0333725 0.0333725 0.0693749 9462.28 4834.01)" r="3923.92"/>
    <path class="fil38" d="M9379.06 4973.69l-6 -19.83c1.61,-2.35 3.2,-0.67 5.48,-2.68 -7.42,-16.51 -9.48,-14.67 -13.64,-21.01 -9.09,-13.84 6.13,6.4 -9.07,-20.06 -2.73,-4.75 -5.1,-13.33 -6.31,-16.07 -3.92,-8.88 -14.52,-16.55 -18.49,-23.57 -9.47,-16.7 -8.03,-6.7 -19.12,-22.41 17.74,4.81 67.21,55.57 75.61,60.41l38.1 38.94c11.42,13.77 24.77,28 36.36,41.79 12.43,14.79 22.46,28.83 34.56,44.18l4.88 7.25c9.44,7.5 38.84,54 54.66,80.56 11.21,-3.92 21.81,-7.92 33.98,-13.43 12.16,-5.52 20,-9.63 31.32,-16.94 -9.36,-31.62 -20.75,-69.84 -23.06,-94.44l-8.41 -40.74c0.94,-3.7 -3.8,-29.01 -4.47,-36.93 -0.63,-7.32 -1.48,-33.35 -3.58,-38.71 1.09,-8.13 -0.2,-19.66 -0.55,-29.37 -0.4,-11.19 0.97,-21.81 -0.13,-31.74 0.88,-4.3 1.24,-14.4 1.62,-20.32 0.63,-10.16 -0.07,-14.24 4.05,-21.41 0.25,1 3.74,39.71 8.55,50.81 1.79,4.14 5.05,7.28 7.61,12.81 3.62,7.87 1.02,9.78 5.29,15.19 10.37,13.08 3.18,10.47 7.92,18.62 6.25,10.76 0.61,4.93 7.79,6.29 -0.69,-2.91 -3.68,0 0.92,-3.44 6.78,12.14 31.66,38.35 41.79,42.72 8.73,-55.56 -21.42,-53.28 -8.09,-67.62l-12.18 -20.84 4.96 -4.71c-4.28,-5.76 -8.77,-10.29 -12.83,-15.41 -14.98,-18.85 9.74,7.68 -13.9,-23.26 -1.79,-2.35 -1.09,-0.69 -2.45,-3.94 -6,-14.29 2.85,10.72 -0.85,-4 -0.08,-0.33 -0.1,-0.97 -0.19,-1.3 -1.8,-6.02 -5.65,-7.1 -10.22,-12.29 5.89,2 16.91,7.28 23.73,7.79 0.24,0.02 0.85,-0.04 1.09,-0.02 10.84,0.89 25.18,14.82 40,22.44l6.66 4.03c27.93,17.18 33.28,34.05 40.35,38.3 1.73,-35.51 -26.15,-81.52 -71.02,-91.78 -7.68,-1.75 -28.83,-6.49 -35.89,-5.86 12.14,-7.59 61.52,-11.81 77.04,-11.88 19.68,-0.1 33.89,8.75 42.28,9.04 -12.04,-25.24 -42.38,-33.09 -63.62,-34.27 -29.06,-1.6 -58.49,8.5 -86.93,24.55 -20.63,-42.49 -12.58,-44.18 -50.3,-69.11 -24.35,-16.1 -50.17,-11.16 -82.38,5.23l8.41 1.53c43.69,2.71 25.25,5.3 55.29,19.27 4.74,2.21 9.84,4.59 13.39,8.09 5.53,5.46 -3.35,-0.88 5.9,5.11l17.41 13.53c5.3,4.49 9.35,12.54 12.56,19.06 -19.13,0.58 -40.56,-10 -80.22,-2.59 -30.08,5.62 -52.1,16.54 -64.72,44.13 -2.69,5.88 -2.89,4.18 -2.71,9.98 41.85,-18.1 51.37,-25.57 93.15,-27.95 14.77,-0.85 -1.96,2.22 25.55,-0.34l3.23 -0.09c13.47,-0.66 11.02,-2.83 21.57,-0.87 -28.89,14.32 -46.6,21.4 -65,45.82 -10.85,14.42 -25.77,44 -18.46,62.78l0.21 7.42c0.09,0.78 1.43,6.43 1.5,6.77 4.06,10.12 9.25,23.56 17.06,30.46l0.82 -13.37c-0.59,-8.37 -2.08,-7.61 1.5,-13.98l1.35 -3.88c9.22,-31.74 10.85,-7.38 10.31,-27.35 14.2,-12.6 1.86,-6.06 11.34,-20.8 6.42,-9.99 2.02,3.12 14.13,-18.9 8.3,-15.09 15.59,-31.43 34.78,-42.29 -0.09,8.75 -6.83,26.49 -6.72,51.54l-0.32 24.29c0.09,7.75 0.36,14.56 0.12,21.85l0.42 4.44c-0.29,10.64 4.07,24.5 -0.14,34.62 3.26,8.02 4.41,35.15 3.42,44.21 2.52,9.57 1.67,15.11 3.4,21.27 -0.17,1.76 -0.34,3.43 -0.58,5.18 -0.06,0.38 -0.04,1.98 -0.34,1.74 -0.3,-0.24 -0.26,1.16 -0.39,1.74 3.25,6.4 2.96,13.84 4.24,21.25 -2.47,13.35 12.28,90.68 12.57,97.17l-0.07 3.45c-14.36,-22.59 -44.85,-59.7 -62.6,-76.52 -12.89,-14.9 -27.01,-29.07 -40.38,-43.59l-29.03 -30.68c-2.32,-2.41 -4.57,-5.06 -7.24,-7.11 -3.16,-2.44 -1.67,-1.56 -4.49,-2.84 -2.97,-6.39 -14.42,-16.52 -19.8,-20.32l-11.53 -13.94c-0.49,-0.2 -1.11,-0.58 -1.42,-0.75l-6.02 -3.33c-0.53,-0.69 -1.04,-0.62 -1.59,-0.87 -5.03,-9.92 -50.66,-46.89 -65.06,-57.39 -9.14,-6.66 -16.14,-8.88 -24.03,-15.38 17.83,-6.42 31.55,-3.05 45.24,0.31 28.22,6.91 13.22,4.81 29.42,4.56l37.01 10.97c15.31,0.81 7.84,3.27 18.77,6.61 11.18,3.42 15.88,7.29 25.96,21.91 5.14,-15.45 -20.28,-60.47 -61.97,-75.4 -33.45,-11.98 -58.59,-6.59 -99.22,14.35 2.59,-7.43 14.86,-18.96 21.03,-25.72 3.78,-4.15 5.82,-12.49 18.53,-26.85 17.13,-19.37 42.51,-30.47 66.96,-43.79 -6.4,-6.18 -26.36,-9.85 -37.59,-8.52 -56.53,6.72 -83.25,84.36 -89.47,91.66 -7.41,-15.31 -8.54,-18.07 -7.74,-31.45 0.69,-11.51 0.59,0.4 -1.62,-6.63 -3.09,-9.84 2.44,-51.12 2.37,-53.12 -0.01,-0.54 -3.37,-14.55 8.31,-34.08 3.46,-5.77 8.12,-10.51 10.13,-16.2 -30.9,13.68 -51.52,30.82 -52.49,63.46 -1.37,45.55 3.93,48.36 27.68,92.09 -33.12,13.68 -55.51,28.84 -71.2,55.07 -9.91,16.56 -22.41,48.58 -7.53,75.34 4.01,-8.01 4.58,-18.66 8.13,-25.76l16.22 -26.15c5.11,-7.46 36.98,-39.5 45.85,-43.9 -10.35,24.85 -24.24,42.8 -21.92,74.58 1.76,24.07 20.36,73.24 42.14,84.93 -3.7,-14.95 -8.36,-24.45 -8.89,-39.71l-0.13 -28.84c1.83,-15.13 0.98,-40.07 4.18,-47.47 0.1,-0.23 0.45,-0.75 0.56,-0.96 4.07,-7.86 5.42,-17.63 7.62,-27.42 1.99,5.89 0.64,4.31 1.79,9.45 3.59,16.13 1.54,4.66 4.86,8.85 4.15,5.24 3.82,12.62 5.85,20.26 4.42,16.58 3.49,-4.14 8.72,17.06 1.99,8.11 3.18,14.42 5.59,22.55l6.83 -0.93 6.53 25.09c0.74,-0.11 1.15,-0.67 1.42,-0.37 3.47,3.87 -2.11,-2.61 6.68,-1.09 8.95,18.71 21.44,43.53 42.28,53.96 3.14,1.57 1.56,0.93 4.48,1.68l-5.06 -43.51z"/>
    <circle class="fil37" transform="matrix(0.091495 -0.0440132 0.0440132 0.091495 8696.23 6054.35)" r="404.74"/>
    <circle class="fil37" transform="matrix(0.232944 -0.112056 0.112056 0.232944 8271.07 5729.12)" r="404.74"/>
    <circle class="fil37" transform="matrix(0.15848 -0.0762359 0.0762359 0.15848 8815.88 5996.79)" r="404.74"/>
    <circle class="fil37" transform="matrix(0.15848 -0.0762359 0.0762359 0.15848 8081.79 5820.17)" r="404.74"/>
    <circle class="fil37" transform="matrix(0.091495 -0.0440132 0.0440132 0.091495 7962.14 5877.72)" r="404.74"/>
    <circle class="fil37" transform="matrix(0.091495 -0.0440132 0.0440132 0.091495 8344.62 5181.31)" r="404.74"/>
   </g>
  </g>
 </g>
</svg>
