<?xml version="1.0" encoding="UTF-8"?>
<!DOCTYPE svg PUBLIC "-//W3C//DTD SVG 1.1//EN" "http://www.w3.org/Graphics/SVG/1.1/DTD/svg11.dtd">
<!-- Creator: CorelDRAW 2017 -->
<svg xmlns="http://www.w3.org/2000/svg" xml:space="preserve" width="22mm" height="30mm" version="1.1" style="shape-rendering:geometricPrecision; text-rendering:geometricPrecision; image-rendering:optimizeQuality; fill-rule:evenodd; clip-rule:evenodd"
viewBox="0 0 2200 3000"
 xmlns:xlink="http://www.w3.org/1999/xlink">
 <defs>
  <style type="text/css">
   <![CDATA[
    .fil0 {fill:#D7263D;fill-rule:nonzero}
   ]]>
  </style>
 </defs>
 <g id="Camada_x0020_1">
  <metadata id="CorelCorpID_0Corel-Layer"/>
  <path class="fil0" d="M1907.51 74.06c30.32,-30.32 70.04,-45.48 109.76,-45.48 39.33,0 78.88,15.16 109.37,45.48l0.39 0.39c30.32,30.49 45.48,70.04 45.48,109.37 0,39.72 -15.16,79.44 -45.48,109.76l-917.27 917.27 -0.2 -0.2c-30.52,30.45 -70.15,45.68 -109.56,45.68 -39.41,0 -79.04,-15.23 -109.56,-45.68l-0.2 0.2 -917.27 -917.27c-30.32,-30.32 -45.48,-70.04 -45.48,-109.76 0,-39.33 15.16,-78.88 45.48,-109.37l0.39 -0.39c30.49,-30.32 70.04,-45.48 109.37,-45.48 39.72,0 79.44,15.16 109.76,45.48l807.51 807.51 807.51 -807.51zm0 1715.1c30.34,-30.34 70.07,-45.48 109.76,-45.48 39.69,0 79.42,15.14 109.74,45.46l-0.18 0.22c30.45,30.52 45.68,70.16 45.68,109.56 0,39.72 -15.16,79.44 -45.48,109.76l-917.27 917.27 -0.2 -0.2c-30.52,30.45 -70.15,45.68 -109.56,45.68 -39.41,0 -79.04,-15.23 -109.56,-45.68l-0.2 0.2 -917.27 -917.27c-30.32,-30.32 -45.48,-70.04 -45.48,-109.76 0,-39.4 15.23,-79.04 45.68,-109.56l-0.2 -0.2c30.34,-30.34 70.07,-45.48 109.76,-45.48 39.69,0 79.42,15.14 109.74,45.46l807.53 807.53 807.51 -807.51zm0 -857.55c30.34,-30.34 70.07,-45.48 109.76,-45.48 39.69,0 79.42,15.14 109.74,45.46l-0.18 0.22c30.45,30.52 45.68,70.16 45.68,109.56 0,39.72 -15.16,79.44 -45.48,109.76l-917.27 917.27 -0.2 -0.2c-30.52,30.45 -70.15,45.68 -109.56,45.68 -39.41,0 -79.04,-15.23 -109.56,-45.68l-0.2 0.2 -917.27 -917.27c-30.32,-30.32 -45.48,-70.04 -45.48,-109.76 0,-39.4 15.23,-79.04 45.68,-109.56l-0.2 -0.2c30.34,-30.34 70.07,-45.48 109.76,-45.48 39.69,0 79.42,15.14 109.74,45.46l807.53 807.53 807.51 -807.51z"/>
 </g>
</svg>
